<svg width="18" height="18" viewBox="0 0 18 18" xmlns="http://www.w3.org/2000/svg"><title>Fill 176</title><path d="M17.438 10.125h-3.375c-.312 0-.563.252-.563.563 0 .31.25.562.563.562h3.374c.312 0 .563-.25.563-.563 0-.31-.25-.562-.563-.562zm0-3.375h-4.5c-.312 0-.563.25-.563.563 0 .31.25.562.563.562h4.5c.31 0 .562-.25.562-.563 0-.31-.25-.562-.563-.562zm0 6.75h-3.375c-.312 0-.563.252-.563.563 0 .31.25.562.563.562h3.374c.312 0 .563-.25.563-.563 0-.31-.25-.562-.563-.562zm-4.5-9h4.5c.31 0 .562-.25.562-.563 0-.31-.25-.562-.563-.562h-4.5c-.31 0-.562.252-.562.563 0 .31.25.562.563.562zm-1.688 9.844c0 1.398-1.236 2.53-2.76 2.53H3.885c-1.525 0-2.76-1.132-2.76-2.53v-1.688c0-1.196.906-2.19 2.122-2.456.83.658 1.843 1.05 2.94 1.05 1.096 0 2.11-.392 2.94-1.05 1.215.265 2.122 1.26 2.122 2.456v1.688zm-9-8.72c0-2.484 1.763-4.5 3.938-4.5 2.174 0 3.937 2.016 3.937 4.5 0 2.486-1.763 4.5-3.938 4.5-2.174 0-3.937-2.014-3.937-4.5zM10.097 9.2c.72-.973 1.153-2.218 1.153-3.575C11.25 2.52 8.984 0 6.187 0 3.392 0 1.125 2.52 1.125 5.625c0 1.357.433 2.602 1.153 3.574C.956 9.654 0 10.896 0 12.374v2.25C0 16.49 1.51 18 3.375 18H9c1.864 0 3.375-1.51 3.375-3.375v-2.25c0-1.478-.956-2.72-2.278-3.176z" fill="#858585" fill-rule="evenodd"/></svg>