<svg width="12" height="12" viewBox="0 0 12 12" xmlns="http://www.w3.org/2000/svg"><title>Fill 178</title><path d="M11.196 1.555L8.4 4.36l1.69 4.65c.084.268.033.598-.075.705-.306.307-.524.16-.64.033L6.673 6.096 3.68 9.1l.54 1.998c-.213-.213-1.454-1.875-1.484-1.905-.02-.02-1.652-1.237-1.828-1.414l1.917.517 3.05-2.994L2.247 2.62c-.104-.093-.24-.368.04-.65.107-.107.434-.14.7-.055l4.63 1.677L10.45.81c.198-.198.585-.178.76-.004.172.173.184.552-.014.75zM11.704.3c-.468-.468-1.29-.358-1.76.114L7.555 2.8 3.115 1.142c-.425-.11-.853-.252-1.38.277-.27.268-.828.828 0 1.658l3.042 2.49-1.98 1.976-1.846-.46c-.274-.072-.46-.017-.6.14-.07.087-.585.468-.226.828l2.147 1.67 1.67 2.148c.26.26.502.098.832-.215.21-.21.164-.317.1-.622L4.46 9.198l1.966-1.972L8.91 10.27c.83.828 1.388.267 1.657 0 .528-.53.386-.96.276-1.384L9.2 4.44l2.38-2.39c.47-.47.592-1.28.124-1.75z" fill="#BFBFBF" fill-rule="evenodd"/></svg>