<?xml version="1.0" standalone="no"?>
<!DOCTYPE svg PUBLIC "-//W3C//DTD SVG 1.1//EN" "http://www.w3.org/Graphics/SVG/1.1/DTD/svg11.dtd" >
<svg xmlns="http://www.w3.org/2000/svg">
<metadata></metadata>
<defs>
<font id="facitbold" horiz-adv-x="1181" >
<font-face units-per-em="2048" ascent="1638" descent="-410" />
<missing-glyph horiz-adv-x="397" />
<glyph unicode="&#xfb01;" horiz-adv-x="1312" d="M61 743v275h156v41q0 83 14 149t52.5 128t101 103t164 66t237.5 25q271 0 400 -100l-121 -238q-116 65 -299 65q-78 0 -125 -11t-69 -38t-28.5 -56.5t-6.5 -82.5v-51h647v-1018h-320v743h-327v-743h-320v743h-156z" />
<glyph unicode="&#xfb03;" horiz-adv-x="1947" d="M61 741v265h156v49q0 446 420 446q89 0 162 -24l-43 -263q-43 13 -88 13q-39 0 -65 -8t-41.5 -21t-23.5 -37t-10 -47.5t-2 -62.5v-45h334v53q0 83 13 148.5t50 128t98.5 103.5t162.5 66t237 25q274 0 400 -100l-121 -238q-116 65 -299 65q-78 0 -125 -11t-69.5 -38 t-29 -57t-6.5 -82v-63h648v-1006h-322v741h-326v-741h-311v741h-334v-741h-309v741h-156z" />
<glyph horiz-adv-x="0" />
<glyph horiz-adv-x="682" />
<glyph unicode=" "  horiz-adv-x="397" />
<glyph unicode="&#x09;" horiz-adv-x="397" />
<glyph unicode="&#xa0;" horiz-adv-x="397" />
<glyph unicode="!" horiz-adv-x="681" d="M201 168q0 81 53 134.5t133 53.5q82 0 135 -53t53 -135q0 -80 -53.5 -133t-134.5 -53q-79 0 -132.5 53t-53.5 133zM215 1413h346l-18 -919h-310z" />
<glyph unicode="&#x22;" horiz-adv-x="937" d="M127 1413h283l-11 -520h-262zM530 1413h281l-10 -520h-262z" />
<glyph unicode="#" d="M20 334v252h162l33 239h-129v252h172l51 336h277l-54 -336h209l52 336h274l-51 -336h121v-252h-164l-35 -239h129v-252h-170l-51 -334h-277l54 334h-209l-52 -334h-276l53 334h-119zM457 586h207l34 239h-209z" />
<glyph unicode="$" d="M61 184l166 246q137 -98 346 -98q83 0 131 25.5t48 91.5q0 38 -28.5 65.5t-75 43.5t-106.5 34.5t-122 35t-122 47.5t-106.5 70t-75 105t-28.5 151q0 186 143 291q79 58 191 86l-2 189h344l-2 -174q192 -25 301 -107l-158 -239q-118 75 -303 75q-84 0 -128 -23.5 t-44 -84.5q0 -30 22.5 -52.5t61 -37.5t88.5 -28.5t105 -29.5t110 -35.5t105 -50.5t88.5 -71.5t61 -102t22.5 -137.5q0 -197 -158 -311q-76 -54 -174 -78l2 -193h-344l2 170q-237 25 -361 127z" />
<glyph unicode="%" horiz-adv-x="1941" d="M102 1008q0 232 93 333q82 89 235 89q146 0 225 -82q93 -98 93 -328t-95 -332q-80 -86 -233 -86q-148 0 -230 82q-88 93 -88 324zM262 37l1254 1487l178 -150l-1254 -1485zM326 1010q0 -130 18.5 -177t77.5 -47q64 0 83 50t19 188q0 128 -17.5 173.5t-76.5 45.5 q-65 0 -84.5 -49.5t-19.5 -183.5zM1192 393q0 233 92 330q78 88 236 88q148 0 227 -82q92 -99 92 -328q0 -230 -96 -331q-83 -86 -232 -86q-148 0 -229 84q-90 95 -90 325zM1417 393q0 -132 18 -177.5t78 -45.5q63 0 83 49.5t20 181.5q0 130 -18.5 177t-77.5 47 q-64 0 -83.5 -49.5t-19.5 -182.5z" />
<glyph unicode="&#x26;" horiz-adv-x="1384" d="M86 358q0 235 205 400q-107 138 -107 284q0 175 115 281q120 111 330 111q199 0 313 -111l-172 -205q-65 56 -156 56q-66 0 -96.5 -28.5t-30.5 -90.5q0 -77 48.5 -148.5t185.5 -218.5l164 -178q43 99 49 235h274q0 -217 -137 -434l289 -311h-365l-98 104 q-73 -67 -156.5 -99t-193.5 -32q-210 0 -336 105q-125 101 -125 280zM377 373q0 -154 172 -154q99 0 178 66l-258 274q-92 -72 -92 -186z" />
<glyph unicode="'" horiz-adv-x="536" d="M127 1413h283l-11 -520h-262z" />
<glyph unicode="(" horiz-adv-x="735" d="M113 600q0 153 9 268t31.5 223t62 191t101 156.5t146.5 134.5l184 -240q-51 -40 -85.5 -77.5t-59 -87t-38 -97t-21 -125.5t-9.5 -153t-2 -197q0 -104 1.5 -170t6 -137.5t14 -117t24.5 -94t38.5 -83.5t55 -69.5t75.5 -67.5l-184 -238q-85 60 -146.5 134.5t-101 158.5 t-62 193.5t-31.5 225.5t-9 269z" />
<glyph unicode=")" horiz-adv-x="735" d="M90 -141q51 40 85.5 77.5t59 87t38 97t21 125.5t9.5 153t2 197q0 121 -2 195t-9.5 152.5t-21.5 126.5t-38 98t-59 88t-85 77l184 238q85 -60 146.5 -133.5t101 -157.5t62.5 -193.5t32 -225.5t9 -269t-9 -269t-32.5 -223t-63 -190.5t-100.5 -156.5t-146 -134z" />
<glyph unicode="*" horiz-adv-x="1050" d="M86 1161l72 219l258 -92l-6 279h229l-4 -279l258 90l70 -219l-261 -78l164 -223l-186 -135l-156 229l-155 -229l-185 137l164 219z" />
<glyph unicode="+" horiz-adv-x="1161" d="M94 418v276h332v381h311v-381h332v-276h-332v-381h-311v381h-332z" />
<glyph unicode="," horiz-adv-x="579" d="M70 -233q86 167 110 256q-84 49 -84 153q0 81 53 137t142 56q88 0 139 -54.5t51 -146.5q0 -190 -209 -506z" />
<glyph unicode="-" horiz-adv-x="653" d="M29 408v294h596v-294h-596z" />
<glyph unicode="." horiz-adv-x="579" d="M96 174q0 85 55 140t140 55q83 0 137.5 -55t54.5 -140q0 -83 -54.5 -138.5t-137.5 -55.5t-139 55.5t-56 138.5z" />
<glyph unicode="/" horiz-adv-x="976" d="M-6 -231l688 1964l289 -107l-688 -1964z" />
<glyph unicode="0" d="M76 696q0 201 33.5 351t121.5 249q129 146 367 146q244 0 369 -148q139 -164 139 -575q0 -200 -34 -349t-122 -251q-132 -148 -366 -148q-245 0 -369 148q-139 164 -139 577zM412 688q0 -241 35.5 -337.5t138.5 -96.5q107 0 144.5 104.5t37.5 366.5q0 242 -34.5 338 t-137.5 96q-108 0 -146 -103.5t-38 -367.5z" />
<glyph unicode="1" d="M51 1104l412 309h364v-1124h267v-289h-942v289h346v794l-267 -209z" />
<glyph unicode="2" d="M86 1247q83 95 213 144t289 49q81 0 150 -12.5t132.5 -42.5t108 -76t70.5 -117.5t26 -163.5q0 -58 -9.5 -106t-32.5 -88.5t-46.5 -70.5t-66 -63.5t-76 -56t-90.5 -57.5q-177 -106 -239 -166t-62 -139l614 2v-283h-963v213q0 70 9 125.5t33 104t53 86t80.5 79t104 75.5 t134.5 83q52 31 78.5 48t60.5 44t49.5 49t27 53t11.5 66q0 78 -47.5 107.5t-134.5 29.5q-89 0 -154.5 -27t-121.5 -85z" />
<glyph unicode="3" d="M72 119l159 219q49 -47 128.5 -71.5t166.5 -24.5q101 0 153 39.5t52 136.5t-55 132.5t-184 35.5h-195v264h188q112 0 170 40t58 132q0 83 -45.5 114t-141.5 31q-192 0 -290 -90l-160 215q76 79 204 114.5t261 35.5q215 0 354 -90q152 -99 152 -289q0 -118 -59.5 -205.5 t-174.5 -126.5q123 -33 186.5 -122.5t63.5 -223.5q0 -203 -156 -313q-145 -99 -377 -99q-141 0 -266.5 36.5t-191.5 109.5z" />
<glyph unicode="4" d="M80 254v285l272 874h314l-273 -870h225v499h297v-497h191v-291h-191v-254h-303v254h-532z" />
<glyph unicode="5" d="M109 115l157 221q48 -47 131 -70.5t160 -23.5q87 0 125 28q68 47 68 185q0 125 -56 168q-42 32 -127 32q-110 0 -180 -73l-240 57l7 774h845v-272h-569l-6 -283q71 57 213 57q176 0 301 -98q145 -115 145 -352q0 -264 -176 -391q-144 -101 -352 -101q-121 0 -249 35.5 t-197 106.5z" />
<glyph unicode="6" d="M90 692q0 214 30 359.5t113 236.5q141 154 418 154q124 0 243.5 -31t186.5 -102l-159 -217q-89 79 -279 79q-46 0 -80.5 -7.5t-59 -19.5t-41 -37.5t-26.5 -51.5t-15.5 -73.5t-7.5 -90t-3 -113.5q83 109 270 109q173 0 293 -99q129 -114 129 -344q0 -243 -139 -362 q-128 -109 -353 -109q-261 0 -389 154q-76 90 -103.5 227t-27.5 338zM424 432q0 -107 42.5 -156t141.5 -49q103 0 141.5 52t38.5 165q0 118 -37 165.5t-130 47.5q-102 0 -149.5 -53.5t-47.5 -171.5z" />
<glyph unicode="7" d="M86 1413h1004v-291q-260 -591 -418 -1122h-355q83 283 187.5 542.5t245.5 563.5h-388l-6 -221h-264z" />
<glyph unicode="8" d="M88 362q0 251 260 357q-239 104 -239 344q0 83 29 149.5t76.5 109.5t111.5 71.5t131 40.5t139 12q71 0 137 -11.5t129.5 -39t109.5 -69t74.5 -105.5t28.5 -144q0 -121 -62 -208.5t-169 -139.5q117 -48 183.5 -139.5t66.5 -222.5q0 -83 -28 -151t-75.5 -113.5t-112.5 -76 t-136 -44t-150 -13.5q-78 0 -149.5 13.5t-136.5 43.5t-113 75t-76.5 112t-28.5 149zM385 391q0 -99 55 -137.5t150 -38.5t150 39t55 137q0 43 -12.5 76.5t-29 54.5t-48 40t-54.5 28.5t-63 23.5q-37 -12 -62.5 -22.5t-54.5 -29t-46 -40.5t-28.5 -55.5t-11.5 -75.5zM408 1038 q0 -33 6 -59t20.5 -45.5t27.5 -32.5t38.5 -25.5t42 -18.5t47.5 -17q47 16 73 27.5t56 33.5t43.5 56.5t13.5 82.5q0 92 -49 127t-133 35q-87 0 -136.5 -36t-49.5 -128z" />
<glyph unicode="9" d="M80 971q0 238 139 360q125 109 350 109q260 0 389 -152q78 -95 106 -229t28 -336q0 -216 -30 -361.5t-114 -236.5q-141 -154 -418 -154q-124 0 -243.5 31t-186.5 102l160 218q90 -80 277 -80q46 0 80.5 7.5t59.5 19.5t41.5 37.5t26.5 52t15.5 73t7.5 90t2 113.5 q-80 -109 -266 -109q-184 0 -295 99q-129 114 -129 346zM391 969q0 -117 38 -165t130 -48q103 0 151 53.5t48 171.5q0 106 -43 155.5t-142 49.5q-103 0 -142.5 -52t-39.5 -165z" />
<glyph unicode=":" horiz-adv-x="614" d="M135 170q0 82 53.5 136t135.5 54t135 -53.5t53 -136.5q0 -82 -53 -135t-135 -53t-135.5 53t-53.5 135zM135 821q0 83 53.5 137t135.5 54t135 -54t53 -137q0 -80 -53.5 -134t-134.5 -54t-135 54t-54 134z" />
<glyph unicode=";" horiz-adv-x="581" d="M68 -233q82 155 108 256q-37 22 -58.5 61t-21.5 88q0 82 51.5 136t137.5 54q88 0 138 -54.5t50 -143.5q0 -191 -207 -500zM96 827q0 82 53.5 136.5t135.5 54.5t136 -54.5t54 -136.5t-54 -136t-136 -54t-135.5 54t-53.5 136z" />
<glyph unicode="&#x3c;" horiz-adv-x="1163" d="M94 399v312l826 360l98 -272l-617 -242l617 -246l-98 -272z" />
<glyph unicode="=" horiz-adv-x="1161" d="M145 193v268h873v-268h-873zM145 649v269h873v-269h-873z" />
<glyph unicode="&#x3e;" horiz-adv-x="1163" d="M147 311l615 244l-615 244l97 272l825 -360v-312l-825 -360z" />
<glyph unicode="?" horiz-adv-x="972" d="M117 1296q161 134 393 134q169 0 287 -72q143 -85 143 -256q0 -65 -19.5 -119t-50.5 -91t-69 -67t-76 -53t-69 -44t-50.5 -45t-19.5 -50q0 -32 30 -80l-229 -102q-88 113 -88 211q0 70 35.5 126.5t86 92t101 66t86 64.5t35.5 72q0 93 -125 93q-131 0 -237 -89zM373 170 q0 80 53.5 133t134.5 53q80 0 134.5 -52.5t54.5 -133.5q0 -82 -54.5 -135t-134.5 -53q-82 0 -135 52.5t-53 135.5z" />
<glyph unicode="@" horiz-adv-x="1742" d="M84 555q0 376 219 598.5t586 222.5q178 0 323.5 -56t240.5 -153.5t146.5 -228.5t51.5 -283q0 -223 -103 -365.5t-286 -142.5q-171 0 -218 136q-101 -142 -274 -142q-123 0 -200.5 70.5t-77.5 191.5q0 267 409 267h78v20q0 51 -24.5 70.5t-90.5 19.5q-138 0 -207 -61 l-125 166q114 106 340 106q184 0 273.5 -81t89.5 -253v-147q0 -168 72 -168q45 0 73.5 70.5t28.5 195.5q0 257 -127.5 397t-398.5 140q-559 0 -559 -586q0 -293 148.5 -435t469.5 -142q368 0 574 190l137 -152q-120 -118 -305.5 -189t-419.5 -71q-207 0 -368.5 58 t-265 163.5t-157 250.5t-53.5 323zM762 414q0 -66 55 -66q49 0 102 46t62 104h-84q-26 0 -42 -1t-36 -5.5t-31 -13t-18.5 -25t-7.5 -39.5z" />
<glyph unicode="A" horiz-adv-x="1273" d="M-6 0l444 1413h398l444 -1413h-348l-76 268h-448l-76 -268h-338zM479 532h307l-153 547z" />
<glyph unicode="B" horiz-adv-x="1265" d="M141 0v1413h592q201 0 307 -82q115 -85 115 -258q0 -124 -57.5 -211.5t-173.5 -118.5q258 -46 258 -325q0 -209 -138 -318q-125 -100 -346 -100h-557zM463 262h196q94 0 134 37q45 42 45 137q0 88 -39 121t-127 33h-209v-328zM463 836h151q95 0 146 39t51 139 q0 78 -35 110q-28 25 -102 25h-211v-313z" />
<glyph unicode="C" horiz-adv-x="1157" d="M84 690q0 196 37.5 345.5t130.5 246.5q146 156 424 156q280 0 426 -156l-180 -227q-100 94 -256 94q-133 0 -185 -80q-53 -83 -53 -373q0 -159 14 -242t47 -126q51 -68 154 -68q158 0 283 141l194 -204q-188 -222 -489 -222q-248 0 -383 142q-164 166 -164 573z" />
<glyph unicode="D" horiz-adv-x="1355" d="M141 0v1413h555q281 0 418 -131q88 -85 123 -220.5t35 -338.5q0 -205 -37.5 -352.5t-136.5 -239.5q-141 -131 -391 -131h-566zM475 289h203q128 0 186 67q35 39 49.5 120t14.5 233q0 150 -15 231.5t-51 122.5q-55 61 -182 61h-205v-835z" />
<glyph unicode="E" horiz-adv-x="1101" d="M141 0v1413h846v-276h-522v-283h475v-276h-475v-304h532v-274h-856z" />
<glyph unicode="F" horiz-adv-x="1058" d="M141 0v1413h850v-295h-518v-293h473v-293h-473v-532h-332z" />
<glyph unicode="G" horiz-adv-x="1325" d="M84 688q0 211 37.5 356t132.5 238q155 152 467 152t473 -148l-190 -233q-113 94 -299 94q-151 0 -211 -70q-34 -40 -48 -120t-14 -248q0 -186 15.5 -272t52.5 -126q57 -63 209 -63q118 0 198 24v267h-233v266h532v-733q-225 -92 -483 -92q-321 0 -477 153 q-95 92 -128.5 227.5t-33.5 327.5z" />
<glyph unicode="H" horiz-adv-x="1388" d="M141 0v1413h332v-545h445v545h329v-1413h-329v573h-445v-573h-332z" />
<glyph unicode="I" horiz-adv-x="612" d="M141 0v1413h332v-1413h-332z" />
<glyph unicode="J" horiz-adv-x="655" d="M-160 -422l45 283q56 -17 117 -17q110 0 147 56.5t37 187.5v1325h330v-1309q0 -265 -124 -407.5t-382 -142.5q-102 0 -170 24z" />
<glyph unicode="K" horiz-adv-x="1343" d="M141 0v1413h332v-534h125l330 534h379l-422 -684l456 -729h-395l-350 567h-123v-567h-332z" />
<glyph unicode="L" horiz-adv-x="1005" d="M141 0v1413h332v-1118h485v-295h-817z" />
<glyph unicode="M" horiz-adv-x="1773" d="M104 0l80 1413h445l258 -893l264 893h438l80 -1413h-323l-35 1044l-275 -981h-303l-272 984l-37 -1047h-320z" />
<glyph unicode="N" horiz-adv-x="1460" d="M141 0v1413h420l451 -964l-11 964h318v-1413h-420l-450 965l10 -965h-318z" />
<glyph unicode="O" horiz-adv-x="1404" d="M84 692q0 205 39 351.5t135 242.5q158 158 453 158q297 0 450 -156q87 -88 123.5 -228t36.5 -341q0 -206 -39 -351t-135 -241q-161 -158 -455 -158q-298 0 -448 156q-87 90 -123.5 228t-36.5 339zM436 705q0 -159 16.5 -251.5t57.5 -138.5q59 -65 186 -65q135 0 201 78 q39 49 55.5 136t16.5 243q0 162 -17 253t-57 136q-60 67 -186 67q-135 0 -201 -78q-40 -49 -56 -135t-16 -245z" />
<glyph unicode="P" horiz-adv-x="1239" d="M141 0v1413h541q224 0 342 -92q154 -121 154 -393q0 -282 -152 -402q-119 -94 -352 -94h-201v-432h-332zM473 717h193q92 0 129 37q39 36 39 168q0 136 -46 176q-35 30 -131 30h-184v-411z" />
<glyph unicode="Q" horiz-adv-x="1404" d="M84 692q0 205 39 351.5t135 242.5q158 158 453 158q297 0 450 -156q87 -88 123.5 -228t36.5 -341q0 -188 -32 -324t-111 -231l172 -191l-256 -237l-226 250q-87 -17 -176 -17q-298 0 -448 156q-87 90 -123.5 228t-36.5 339zM436 705q0 -159 16.5 -251.5t57.5 -138.5 q59 -65 186 -65q135 0 201 78q39 49 55.5 136t16.5 243q0 162 -17 253t-57 136q-60 67 -186 67q-135 0 -201 -78q-40 -49 -56 -135t-16 -245z" />
<glyph unicode="R" horiz-adv-x="1298" d="M141 0v1413h578q213 0 332 -76q155 -99 155 -327q0 -153 -65 -255t-201 -137q54 -10 93 -38.5t67.5 -74t49.5 -120.5t35.5 -164.5t28.5 -220.5h-348q-14 103 -24.5 168.5t-23.5 124t-27 90.5t-33.5 55.5t-42.5 32t-56 8.5h-186v-479h-332zM473 758h150q63 0 104.5 8.5 t73.5 31t46.5 65t14.5 108.5q0 95 -39 131q-30 28 -123 28h-227v-372z" />
<glyph unicode="S" horiz-adv-x="1097" d="M31 117l164 243q65 -52 156.5 -78t178.5 -26q83 0 130 31t47 116q0 43 -28 75.5t-73.5 51.5t-104 40t-119.5 40t-119.5 52.5t-104 76t-73.5 113t-28 160.5q0 196 160 315q149 111 369 111q115 0 232.5 -30t193.5 -93l-156 -240q-60 41 -142 61.5t-155 20.5 q-82 0 -124 -29.5t-42 -107.5q0 -43 36 -73.5t93 -50.5t126.5 -40.5t138.5 -52.5t126 -77t93 -123.5t36 -182.5q0 -116 -48.5 -203.5t-129.5 -142.5q-144 -99 -366 -99q-128 0 -257.5 35t-209.5 107z" />
<glyph unicode="T" horiz-adv-x="1087" d="M16 1118v295h1055v-295h-362v-1118h-332v1118h-361z" />
<glyph unicode="U" horiz-adv-x="1388" d="M141 498v915h332v-909q0 -53 3 -84.5t15 -65.5t35.5 -51.5t65.5 -29t104 -11.5q60 0 100 10.5t64 28t36 50t15.5 66t3.5 87.5v909h332v-905q0 -235 -94 -354q-141 -179 -469 -179q-309 0 -442 158q-101 120 -101 365z" />
<glyph unicode="V" horiz-adv-x="1267" d="M6 1413h352l281 -1040l276 1040h349l-447 -1413h-371z" />
<glyph unicode="W" horiz-adv-x="1847" d="M20 1413h332l180 -1026l226 989h336l223 -987l180 1024h330l-311 -1413h-375l-221 971l-224 -971h-374z" />
<glyph unicode="X" horiz-adv-x="1300" d="M8 0l430 731l-399 682h387l229 -459l226 459h381l-398 -682l430 -731h-391l-254 502l-258 -502h-383z" />
<glyph unicode="Y" horiz-adv-x="1163" d="M-20 1413h378l222 -551l227 551h379l-445 -887v-526h-331v526z" />
<glyph unicode="Z" horiz-adv-x="1114" d="M61 0v276l562 842h-539v291h940v-276l-565 -844l579 2v-291h-977z" />
<glyph unicode="[" horiz-adv-x="747" d="M141 -305v1802h518v-262h-213v-1280h213v-260h-518z" />
<glyph unicode="\" horiz-adv-x="966" d="M6 1606l291 106l678 -1943l-291 -107z" />
<glyph unicode="]" horiz-adv-x="747" d="M90 -43h213v1278h-213v262h516v-1802h-516v262z" />
<glyph unicode="^" horiz-adv-x="1161" d="M68 698l356 824h313l359 -824l-275 -98l-241 614l-240 -614z" />
<glyph unicode="_" horiz-adv-x="849" d="M0 -76h850v-286h-850v286z" />
<glyph unicode="`" horiz-adv-x="409" d="M-102 1522l198 170l334 -404l-172 -153z" />
<glyph unicode="a" horiz-adv-x="1069" d="M51 297q0 182 129 270q124 84 365 84h110v27q0 86 -33 117.5t-120 31.5q-151 0 -246 -92l-158 183q75 82 178.5 115.5t239.5 33.5q226 0 330 -92t104 -309v-666h-272l-2 133q-110 -160 -303 -160q-141 0 -230 82q-92 86 -92 242zM352 311q0 -104 74 -104q72 0 149 69 t87 170h-132q-95 0 -136.5 -25.5t-41.5 -109.5z" />
<glyph unicode="b" horiz-adv-x="1177" d="M129 0v1567h322v-629q104 133 282 133q87 0 152.5 -30.5t104 -79t62.5 -120t32 -142.5t8 -158q0 -65 -4.5 -120.5t-16.5 -114t-31 -105.5t-50 -89t-72.5 -70.5t-99 -45t-128.5 -16.5q-181 0 -282 129l-7 -109h-272zM438 479q0 -119 56 -178q51 -57 129 -57q35 0 60 12.5 t40.5 34t24 57.5t11.5 76t3 96q0 141 -25 207t-94 66q-76 0 -135 -76q-70 -88 -70 -238z" />
<glyph unicode="c" horiz-adv-x="980" d="M86 510q0 297 139 436q126 123 348 123q229 0 347 -121l-181 -217q-65 57 -161 57q-94 0 -125 -59t-31 -205q0 -145 27.5 -207.5t103.5 -62.5q102 0 190 94l191 -203q-146 -165 -397 -165q-214 0 -328 124q-123 134 -123 406z" />
<glyph unicode="d" horiz-adv-x="1183" d="M86 514q0 317 137 449q109 106 291 106q140 0 219 -74v572h322v-1567h-301l-4 137q-52 -79 -132 -121.5t-174 -42.5q-145 0 -235 101q-123 135 -123 440zM424 518q0 -152 22.5 -211t81.5 -59q69 0 131 78q86 109 86 266q0 113 -53 166q-43 43 -121 43q-89 0 -118 -63.5 t-29 -219.5z" />
<glyph unicode="e" horiz-adv-x="1114" d="M86 502q0 296 137 438q128 131 359 131q99 0 175.5 -25t126.5 -69t81.5 -108.5t45 -138t13.5 -163.5q0 -58 -8 -123l-617 -6q1 -56 7.5 -91.5t24.5 -65.5t53.5 -44t90.5 -14q156 0 277 111l158 -184q-172 -175 -445 -175q-216 0 -338 107q-141 126 -141 420zM403 649h316 q-1 50 -6.5 81.5t-21.5 57.5t-45.5 38t-76.5 12q-91 0 -127 -47.5t-39 -141.5z" />
<glyph unicode="f" horiz-adv-x="831" d="M61 739v281h156v51q0 94 23.5 172.5t73.5 142.5t137.5 100t205.5 36q79 0 151 -16.5t116 -45.5l-105 -246q-60 31 -141 31q-85 0 -113 -40t-28 -138v-47h237v-281h-237v-739h-320v739h-156z" />
<glyph unicode="g" d="M86 520q0 149 30 255.5t99 180.5q108 111 283 111q179 0 280 -125l4 102h273v-1028q0 -80 -14.5 -148t-53 -133.5t-99 -111.5t-158.5 -74t-226 -28q-272 0 -404 121l150 227q105 -84 268 -84q68 0 112.5 13.5t67 42t31 63t8.5 86.5v147q-103 -143 -286 -143 q-161 0 -256 115q-109 133 -109 411zM424 526q0 -147 22 -207.5t86 -60.5q78 0 138 76q33 43 54 109t21 139q0 112 -55 170q-51 51 -127 51q-85 0 -112 -62.5t-27 -214.5z" />
<glyph unicode="h" horiz-adv-x="1165" d="M129 0v1567h322v-654q42 72 117.5 115t176.5 43q145 0 223.5 -96t78.5 -277v-698h-324v653q0 63 -16.5 92t-59.5 29q-80 0 -138 -90.5t-58 -267.5v-416h-322z" />
<glyph unicode="i" horiz-adv-x="577" d="M100 1389q0 82 54.5 137t134.5 55q82 0 135 -54.5t53 -137.5t-53 -137t-135 -54q-80 0 -134.5 55t-54.5 136zM129 0v1044h322v-1044h-322z" />
<glyph unicode="j" horiz-adv-x="589" d="M-117 -455l43 279q42 -10 90 -10q77 0 101 32.5t24 110.5v1087h322v-1079q0 -207 -108 -322.5t-330 -115.5q-75 0 -142 18zM115 1389q0 83 53 137.5t135 54.5q80 0 134.5 -55t54.5 -137q0 -81 -54.5 -136t-134.5 -55q-82 0 -135 54t-53 137z" />
<glyph unicode="k" horiz-adv-x="1146" d="M129 0v1567h322v-877h77l195 354h379l-318 -501l349 -543h-396l-219 383h-67v-383h-322z" />
<glyph unicode="l" horiz-adv-x="577" d="M129 0v1567h322v-1567h-322z" />
<glyph unicode="m" horiz-adv-x="1734" d="M129 0v1044h299v-157q96 184 305 184t273 -190q107 190 313 190q143 0 220 -96t77 -277v-698h-322v645q0 68 -15.5 98.5t-59.5 30.5q-76 0 -131.5 -90t-55.5 -262v-422h-321v649q0 64 -15.5 94.5t-58.5 30.5q-78 0 -133 -89.5t-55 -262.5v-422h-320z" />
<glyph unicode="n" horiz-adv-x="1165" d="M129 0v1044h299v-159q100 186 311 186q151 0 229.5 -96.5t78.5 -276.5v-698h-324v647q0 66 -17 96.5t-61 30.5q-82 0 -138 -91.5t-56 -262.5v-420h-322z" />
<glyph unicode="o" horiz-adv-x="1146" d="M86 508q0 161 32 264t109 178q130 127 355 127q221 0 342 -112q76 -70 106.5 -171.5t30.5 -258.5q0 -161 -32 -264t-111 -179q-129 -123 -353 -123q-218 0 -340 113q-77 70 -108 170t-31 256zM416 514q0 -190 47 -240q31 -36 106 -36q77 0 111 43q53 62 53 251 q0 181 -49 238q-30 37 -102 37q-83 0 -115 -41q-51 -59 -51 -252z" />
<glyph unicode="p" horiz-adv-x="1183" d="M129 -471v1515h303l2 -137q53 78 132 121t171 43q137 0 228 -88q133 -130 133 -448q0 -329 -146 -461q-111 -99 -276 -99q-134 0 -225 74v-520h-322zM438 438q0 -95 45 -149q42 -51 129 -51q86 0 117 61t31 227q0 148 -23.5 207.5t-83.5 59.5q-74 0 -137 -86 q-78 -109 -78 -269z" />
<glyph unicode="q" d="M86 504q0 328 133 461q99 102 268 102q191 0 289 -133l6 110h271v-1515h-320v582q-110 -138 -284 -138q-136 0 -232 93q-131 128 -131 438zM424 508q0 -143 22.5 -202.5t90.5 -59.5q75 0 133 73q73 90 73 242q0 115 -53 176q-54 60 -135 60q-79 0 -105 -62t-26 -227z" />
<glyph unicode="r" horiz-adv-x="841" d="M129 0v1044h303l-2 -170q44 101 117 150t162 49q52 0 104 -20l-41 -305q-46 12 -78 12q-67 0 -115.5 -32t-76 -90t-40.5 -130t-13 -162v-346h-320z" />
<glyph unicode="s" horiz-adv-x="909" d="M41 109l147 196q93 -90 250 -90q60 0 91.5 18t31.5 66q0 29 -27.5 49.5t-71.5 35.5t-97.5 31t-107 41t-97.5 59t-71.5 92t-27.5 134q0 106 60 181t155.5 110t215.5 35q105 0 197.5 -29.5t150.5 -91.5l-148 -194q-96 75 -221 75q-111 0 -111 -73q0 -26 27.5 -45 t71.5 -33.5t97 -30.5t106 -42t97 -61t71.5 -94t27.5 -135q0 -73 -25 -131t-66.5 -96t-98.5 -63.5t-118.5 -36.5t-129.5 -11q-114 0 -216 33t-163 101z" />
<glyph unicode="t" horiz-adv-x="888" d="M57 748v278h152v287l321 28v-315h258v-278h-258v-336q0 -33 0.5 -49t4 -36t10.5 -28.5t20.5 -17t33 -11t48.5 -2.5q71 0 133 15l19 -269q-111 -26 -219 -26q-107 0 -180 25.5t-114.5 78.5t-59 124t-17.5 171v361h-152z" />
<glyph unicode="u" horiz-adv-x="1159" d="M129 344v700h320v-651q0 -62 17.5 -94.5t61.5 -32.5q74 0 128.5 90.5t54.5 259.5v428h319v-1044h-297v160q-102 -187 -305 -187q-148 0 -223.5 95t-75.5 276z" />
<glyph unicode="v" horiz-adv-x="1071" d="M20 1044h347l176 -704l172 704h336l-336 -1044h-363z" />
<glyph unicode="w" horiz-adv-x="1566" d="M27 1044h323l125 -684l146 664h331l146 -659l125 679h317l-260 -1044h-350l-150 664l-151 -664h-353z" />
<glyph unicode="x" horiz-adv-x="1105" d="M25 0l319 539l-293 505h365l145 -296l139 296h359l-281 -505l303 -539h-364l-164 319l-164 -319h-364z" />
<glyph unicode="y" horiz-adv-x="1095" d="M20 1044h342l199 -802l180 802h334l-280 -983q-75 -266 -200.5 -402t-313.5 -136q-61 0 -117.5 13.5t-87.5 35.5l96 260q42 -25 100 -25q78 0 124 52.5t81 179.5h-147z" />
<glyph unicode="z" horiz-adv-x="952" d="M76 0v264l389 492h-369v276h762v-262l-391 -494h401v-276h-792z" />
<glyph unicode="{" horiz-adv-x="774" d="M6 457v276q57 2 90 9.5t57 29t33 59.5t9 101v225q0 161 89 250.5t246 89.5h156v-283h-72q-76 0 -97 -29t-21 -106v-182q0 -246 -197 -301q197 -57 197 -301v-186q0 -76 21 -106t97 -30h72v-278h-156q-156 0 -245.5 85.5t-89.5 244.5v235q0 62 -9 99.5t-34 59t-57 29 t-89 9.5z" />
<glyph unicode="|" horiz-adv-x="608" d="M141 -471v2038h326v-2038h-326z" />
<glyph unicode="}" horiz-adv-x="774" d="M90 -23h70q77 0 99 29.5t22 106.5v180q0 249 194 303q-194 57 -194 301v186q0 74 -22.5 105t-98.5 31h-70v276h156q156 0 245 -85.5t89 -244.5v-235q0 -62 9 -99t33.5 -58t56.5 -28.5t89 -9.5v-276q-56 -2 -88.5 -9.5t-57 -29t-33.5 -59.5t-9 -101v-225q0 -160 -89 -250 t-245 -90h-156v282z" />
<glyph unicode="~" horiz-adv-x="1161" d="M72 565q94 97 166 143t163 46q51 0 106.5 -17t96 -37.5t86.5 -37.5t80 -17q39 0 73 22.5t77 67.5l172 -190q-63 -65 -107.5 -101.5t-103 -62t-121.5 -25.5q-49 0 -105 17t-96.5 37.5t-87 37.5t-80.5 17q-37 0 -69.5 -22.5t-79.5 -69.5z" />
<glyph unicode="&#xa1;" horiz-adv-x="681" d="M109 1094q0 80 53.5 133t132.5 53q81 0 134.5 -53t53.5 -133t-53.5 -134.5t-134.5 -54.5q-80 0 -133 53.5t-53 135.5zM123 -152l18 920h310l18 -920h-346z" />
<glyph unicode="&#xa2;" d="M109 719q0 326 145 479q82 89 213 127l-4 242h344l-2 -224q178 -27 282 -131l-192 -225q-84 76 -219 76q-56 0 -94.5 -13.5t-63 -37.5t-37.5 -67t-17.5 -91.5t-4.5 -122.5q0 -192 37 -268t151 -76q146 0 256 123l207 -213q-123 -135 -305 -176l2 -234h-344l4 236 q-133 35 -217 125q-141 151 -141 471z" />
<glyph unicode="&#xa3;" d="M102 0v276h134v285h-134v277h134v77q0 77 15 147t52 139t93 119t145.5 81t201.5 31q241 0 359 -121l-189 -221q-66 63 -174 63q-56 0 -91 -16.5t-52 -52.5t-22 -75t-5 -102v-69h303v-277h-303v-285h553v-276h-1020z" />
<glyph unicode="&#xa4;" d="M-31 1153l197 199l201 -201q98 45 227 45q128 0 221 -43l197 195l198 -195l-200 -195q43 -93 43 -223t-43 -223l202 -199l-196 -196l-199 196q-91 -45 -229 -45q-135 0 -226 45l-192 -198l-199 198l197 197q-41 96 -41 219q0 125 45 227zM401 735q0 -215 189 -215 q100 0 145 55t45 160q0 106 -45 156.5t-143 50.5q-100 0 -145.5 -51.5t-45.5 -155.5z" />
<glyph unicode="&#xa5;" d="M-25 1413h379l234 -549l248 549h370l-288 -532h184v-275h-334l-20 -39v-71h354v-277h-354v-219h-328v219h-330v277h330v71l-21 39h-309v275h166z" />
<glyph unicode="&#xa6;" horiz-adv-x="608" d="M141 303h326v-774h-326v774zM141 791v776h326v-776h-326z" />
<glyph unicode="&#xa7;" horiz-adv-x="1021" d="M31 662q0 184 131 299q-58 78 -58 188q0 107 65 183t163.5 110.5t216.5 34.5q99 0 196 -25t166 -80l-131 -205q-94 70 -250 70q-69 0 -102 -21t-33 -69q0 -30 31.5 -53t81.5 -41t111 -38.5t122 -53.5t111 -76.5t81.5 -115.5t31.5 -165q0 -180 -125 -295q63 -79 63 -192 q0 -65 -26.5 -119.5t-70.5 -91.5t-102 -62.5t-120 -37t-125 -11.5q-102 0 -211.5 28.5t-179.5 84.5l133 211q114 -84 274 -84q70 0 105.5 21t35.5 71q0 32 -32.5 55.5t-84 41t-114 37t-124.5 50t-113.5 73t-84 114t-32.5 164.5zM309 680q0 -24 7.5 -44.5t18 -36.5t31 -31.5 t37.5 -26t46.5 -23.5t49.5 -20.5t55.5 -21t55.5 -21.5q76 62 76 135q0 26 -8 48.5t-26.5 41.5t-36 32.5t-50 28.5t-54 24t-63 24.5t-61.5 23.5q-78 -61 -78 -133z" />
<glyph unicode="&#xa8;" horiz-adv-x="409" d="M-162 1368q0 69 44 114.5t110 45.5t112 -46t46 -114q0 -66 -46 -110t-112 -44q-64 0 -109 45t-45 109zM260 1368q0 69 44 114.5t110 45.5t111.5 -45.5t45.5 -114.5q0 -65 -46 -109.5t-111 -44.5q-66 0 -110 44.5t-44 109.5z" />
<glyph unicode="&#xa9;" horiz-adv-x="1613" d="M84 709q0 154 48 290t137 240t228 164.5t310 60.5q170 0 309 -60t228.5 -164.5t137.5 -241.5t48 -293t-48.5 -292.5t-138 -240.5t-228 -164.5t-308.5 -60.5t-309 61t-228.5 166t-137.5 242t-48 293zM311 702q0 -117 29.5 -212t89 -166t156 -109.5t223.5 -38.5 q125 0 220 38.5t153 109.5t87 166.5t29 214.5q0 246 -120 389t-365 143q-127 0 -224 -39.5t-157 -111.5t-90.5 -168.5t-30.5 -215.5zM442 690q0 204 101 318q105 112 295 112q181 0 282 -90l-147 -201q-56 41 -137 41q-60 0 -80.5 -33.5t-20.5 -129.5q0 -103 20.5 -139 t69.5 -36q75 0 146 64l166 -180q-131 -131 -328 -131q-161 0 -258 90q-109 104 -109 315z" />
<glyph unicode="&#xaa;" horiz-adv-x="716" d="M47 1169q0 111 90 164q74 45 221 45h62v11q0 38 -19 52.5t-69 14.5q-88 0 -148 -51l-106 123q88 88 264 88q146 0 212.5 -55t66.5 -187v-381h-185l-2 68q-69 -86 -184 -86q-89 0 -144 49q-59 50 -59 145zM92 737v168h529v-168h-529zM252 1176q0 -23 8.5 -33t30.5 -10 q35 0 80.5 35.5t52.5 78.5h-70q-56 0 -79 -12t-23 -59z" />
<glyph unicode="&#xab;" horiz-adv-x="1173" d="M37 555l362 463l193 -150l-234 -313l234 -309l-193 -154zM549 555l362 463l195 -150l-236 -313l236 -309l-195 -154z" />
<glyph unicode="&#xac;" horiz-adv-x="1163" d="M125 520v277h889v-670h-309v393h-580z" />
<glyph unicode="&#xad;" horiz-adv-x="653" d="M29 408v294h596v-294h-596z" />
<glyph unicode="&#xae;" horiz-adv-x="1193" d="M86 1202q0 223 142.5 373.5t367.5 150.5q149 0 267 -70t181.5 -189t63.5 -265q0 -108 -38 -204t-104.5 -166t-163 -111t-208.5 -41q-148 0 -265 69.5t-180 188.5t-63 264zM260 1202q0 -160 89.5 -255t244.5 -95q157 0 247.5 94.5t90.5 255.5q0 163 -88.5 258.5 t-245.5 95.5t-247.5 -96t-90.5 -258zM373 946v516h256q104 0 158.5 -36.5t54.5 -120.5q0 -119 -105 -146q59 -10 76 -52t25 -161h-176q-8 87 -17.5 115.5t-32.5 28.5h-71v-144h-168zM541 1229h41q47 0 66.5 10t19.5 43q0 24 -11 31.5t-43 7.5h-73v-92z" />
<glyph unicode="&#xaf;" horiz-adv-x="409" d="M-127 1231v237h664v-237h-664z" />
<glyph unicode="&#xb0;" horiz-adv-x="989" d="M96 1116q0 177 108.5 287t295.5 110t290 -105.5t103 -279.5q0 -178 -107.5 -287.5t-296.5 -109.5q-187 0 -290 105t-103 280zM358 1114q0 -71 32 -114.5t99 -43.5q70 0 105 49t35 125q0 70 -31 113t-98 43q-70 0 -106 -48.5t-36 -123.5z" />
<glyph unicode="&#xb1;" horiz-adv-x="1161" d="M164 45v258h833v-258h-833zM164 647v260h278v254h279v-254h276v-260h-276v-262h-279v262h-278z" />
<glyph unicode="&#xb2;" horiz-adv-x="788" d="M66 1706q52 58 135.5 89.5t183.5 31.5q66 0 119.5 -12.5t98.5 -40.5t70 -77.5t25 -117.5q0 -50 -14 -89.5t-42.5 -69t-60 -50t-79.5 -43.5q-112 -56 -145 -81t-33 -60h366v-193h-610v146q0 115 55 176.5t199 134.5q43 21 59.5 30t38.5 25.5t29.5 32t7.5 37.5 q0 61 -100 61q-98 0 -166 -65z" />
<glyph unicode="&#xb3;" horiz-adv-x="788" d="M57 1061l109 147q61 -49 178 -49q60 0 89.5 17.5t29.5 62.5q0 43 -31 59.5t-102 16.5h-129v180h125q63 0 95 17.5t32 58.5q0 40 -26 54.5t-81 14.5q-116 0 -176 -47l-109 146q48 47 130 67.5t167 20.5q138 0 230 -58q94 -62 94 -165q0 -66 -37 -117t-106 -74 q74 -21 112.5 -72t38.5 -124q0 -112 -94 -177q-88 -63 -244 -63q-91 0 -172.5 20.5t-122.5 63.5z" />
<glyph unicode="&#xb4;" horiz-adv-x="409" d="M-35 1288l334 404l197 -170l-359 -387z" />
<glyph unicode="&#xb5;" horiz-adv-x="1159" d="M129 -471v1515h320v-651q0 -61 17.5 -93t61.5 -32q74 0 128.5 93t54.5 262v421h319v-1044h-297l2 160q-92 -180 -286 -180h-19l21 -451h-322z" />
<glyph unicode="&#xb6;" horiz-adv-x="1660" d="M63 946q0 96 14 172t36.5 128.5t59 91t74 60.5t88.5 35t96.5 17t103.5 4h987v-1927h-305v1651h-199v-1651h-303v926h-178q-55 0 -96.5 3t-93.5 15t-90 32t-76.5 57t-63 88t-39.5 127t-15 171zM373 952q0 -73 10.5 -117t36.5 -66.5t58 -29t87 -6.5h150v441h-156 q-111 0 -148.5 -51t-37.5 -171z" />
<glyph unicode="&#xb7;" horiz-adv-x="579" d="M96 555q0 83 55 139t138 56t138.5 -56t55.5 -139t-55.5 -139t-138.5 -56q-82 0 -137.5 56t-55.5 139z" />
<glyph unicode="&#xb8;" horiz-adv-x="409" d="M-127 -373l125 129q48 -63 104 -63q62 0 62 55q0 65 -119 98l21 201h192l-10 -117q70 -33 99.5 -77t29.5 -105q0 -100 -68.5 -168.5t-189.5 -68.5q-153 0 -246 116z" />
<glyph unicode="&#xb9;" horiz-adv-x="788" d="M43 1620l254 188h254v-616h160v-199h-602v199h213v389l-154 -117z" />
<glyph unicode="&#xba;" horiz-adv-x="763" d="M68 1288q0 175 96 258q81 72 223 72q133 0 213 -64q94 -76 94 -249q0 -174 -94 -256q-82 -72 -225 -72q-137 0 -215 63q-92 74 -92 248zM111 737v168h540v-168h-540zM299 1288q0 -88 25 -110q17 -17 53 -17q37 0 61 21q25 31 25 127q0 87 -29 110q-16 13 -49 13 q-38 0 -57 -19q-29 -29 -29 -125z" />
<glyph unicode="&#xbb;" horiz-adv-x="1173" d="M70 244l233 311l-233 309l192 154l363 -463l-363 -463zM582 244l235 311l-235 309l192 154l365 -463l-365 -463z" />
<glyph unicode="&#xbc;" horiz-adv-x="1953" d="M102 1239l222 174h247v-604h146v-191h-555v191h192v391l-135 -115zM262 37l1254 1487l178 -150l-1254 -1485zM1214 133v186l144 476h205l-144 -471h113v268h194v-266h105v-193h-105v-133h-198v133h-314z" />
<glyph unicode="&#xbd;" horiz-adv-x="1953" d="M102 1239l222 174h247v-604h146v-191h-555v191h192v391l-135 -115zM262 37l1254 1487l178 -150l-1254 -1485zM1221 696q46 56 125 85.5t172 29.5q62 0 112 -12t92 -38.5t65 -74t23 -113.5q0 -93 -45 -145.5t-137 -101.5q-100 -53 -132 -79.5t-32 -62.5l338 2v-186h-567 v141q0 58 12.5 100t44 77.5t70.5 62.5t106 63q39 21 54.5 30.5t36.5 25.5t27.5 31.5t6.5 37.5q0 34 -24 47t-68 13q-90 0 -151 -64z" />
<glyph unicode="&#xbe;" horiz-adv-x="1953" d="M98 684l105 141q56 -47 174 -47q57 0 86 17.5t29 62.5q0 43 -31 59.5t-101 16.5h-124v172h120q62 0 93.5 18t31.5 60q0 39 -24.5 53t-77.5 14q-114 0 -174 -45l-105 140q87 84 289 84q135 0 221 -56q92 -60 92 -162q0 -64 -35.5 -113t-103.5 -73q148 -41 148 -190 q0 -107 -93 -172q-87 -62 -235 -62q-88 0 -166.5 20.5t-118.5 61.5zM262 37l1254 1487l178 -150l-1254 -1485zM1214 133v186l144 476h205l-144 -471h113v268h194v-266h105v-193h-105v-133h-198v133h-314z" />
<glyph unicode="&#xbf;" horiz-adv-x="972" d="M33 160q0 65 19.5 119t50.5 91t69 67t76 53t69 44t50.5 45t19.5 50q0 30 -31 80l230 102q90 -111 90 -211q0 -60 -25.5 -110t-63.5 -81.5t-83 -62.5t-83 -53.5t-63.5 -52.5t-25.5 -62q0 -92 123 -92q131 0 239 88l162 -209q-159 -133 -393 -133q-169 0 -287 72 q-143 85 -143 256zM225 1094q0 81 53.5 133.5t135.5 52.5q80 0 133 -52.5t53 -133.5q0 -82 -53 -135.5t-133 -53.5q-82 0 -135.5 53.5t-53.5 135.5z" />
<glyph unicode="&#xc0;" horiz-adv-x="1273" d="M-6 0l444 1413h398l444 -1413h-348l-76 268h-448l-76 -268h-338zM270 1784l146 217l440 -313l-119 -185zM479 532h307l-153 547z" />
<glyph unicode="&#xc1;" horiz-adv-x="1273" d="M-6 0l444 1413h398l444 -1413h-348l-76 268h-448l-76 -268h-338zM389 1688l440 313l146 -217l-467 -281zM479 532h307l-153 547z" />
<glyph unicode="&#xc2;" horiz-adv-x="1273" d="M-6 0l444 1413h398l444 -1413h-348l-76 268h-448l-76 -268h-338zM287 1692l354 247l346 -243l-117 -187l-233 146l-236 -148zM479 532h307l-153 547z" />
<glyph unicode="&#xc3;" horiz-adv-x="1273" d="M-6 0l444 1413h398l444 -1413h-348l-76 268h-448l-76 -268h-338zM238 1765q74 79 135 117.5t141 38.5q62 0 145 -34t119 -34q57 0 129 76l129 -162q-72 -79 -133.5 -118t-140.5 -39q-63 0 -146 33.5t-120 33.5q-60 0 -129 -73zM479 532h307l-153 547z" />
<glyph unicode="&#xc4;" horiz-adv-x="1273" d="M-6 0l444 1413h398l444 -1413h-348l-76 268h-448l-76 -268h-338zM270 1737q0 69 44 114t110 45q67 0 112.5 -45.5t45.5 -113.5q0 -66 -46 -110t-112 -44q-64 0 -109 44.5t-45 109.5zM479 532h307l-153 547zM692 1737q0 69 44 114t110 45q67 0 112.5 -45.5t45.5 -113.5 q0 -65 -46.5 -109.5t-111.5 -44.5q-66 0 -110 44.5t-44 109.5z" />
<glyph unicode="&#xc5;" horiz-adv-x="1273" d="M-6 0l444 1413h398l444 -1413h-348l-76 268h-448l-76 -268h-338zM356 1759q0 112 78.5 178t202.5 66q123 0 202 -66t79 -178q0 -113 -79 -178t-202 -65t-202 65.5t-79 177.5zM479 532h307l-153 547zM551 1757q0 -41 23 -61.5t63 -20.5t63 21.5t23 62.5t-22.5 61.5 t-61.5 20.5q-88 0 -88 -84z" />
<glyph unicode="&#xc6;" horiz-adv-x="1832" d="M-49 0l657 1413h1108v-280h-504v-277h461v-278h-461v-299h514v-279h-843v291h-441l-125 -291h-366zM555 551h328v582h-76z" />
<glyph unicode="&#xc7;" horiz-adv-x="1157" d="M84 690q0 196 37.5 345.5t130.5 246.5q146 156 422 156q282 0 428 -156l-180 -227q-100 94 -258 94q-131 0 -183 -80q-28 -43 -40.5 -131t-12.5 -254q0 -151 14.5 -232t46.5 -124q51 -68 154 -68q158 0 283 141l194 -204q-175 -203 -428 -220l-4 -47q70 -33 99.5 -77 t29.5 -105q0 -100 -68.5 -168.5t-189.5 -68.5q-151 0 -244 116l123 129q48 -63 105 -63q29 0 46 14t17 41q0 64 -121 98l15 140q-155 27 -252 131q-164 166 -164 573z" />
<glyph unicode="&#xc8;" horiz-adv-x="1101" d="M141 0v1413h846v-276h-522v-283h475v-276h-475v-304h532v-274h-856zM211 1784l145 217l441 -313l-119 -185z" />
<glyph unicode="&#xc9;" horiz-adv-x="1101" d="M141 0v1413h846v-276h-522v-283h475v-276h-475v-304h532v-274h-856zM330 1688l440 313l145 -217l-466 -281z" />
<glyph unicode="&#xca;" horiz-adv-x="1101" d="M141 0v1413h846v-276h-522v-283h475v-276h-475v-304h532v-274h-856zM227 1692l355 247l346 -243l-117 -187l-233 146l-236 -148z" />
<glyph unicode="&#xcb;" horiz-adv-x="1101" d="M141 0v1413h846v-276h-522v-283h475v-276h-475v-304h532v-274h-856zM211 1737q0 69 44 114t110 45q67 0 112 -45t45 -114q0 -66 -45.5 -110t-111.5 -44q-65 0 -109.5 44.5t-44.5 109.5zM633 1737q0 69 43.5 114t109.5 45q67 0 112.5 -45.5t45.5 -113.5 q0 -65 -46.5 -109.5t-111.5 -44.5q-66 0 -109.5 44.5t-43.5 109.5z" />
<glyph unicode="&#xcc;" horiz-adv-x="612" d="M-59 1784l145 217l440 -313l-118 -185zM141 0v1413h332v-1413h-332z" />
<glyph unicode="&#xcd;" horiz-adv-x="612" d="M59 1688l441 313l145 -217l-467 -281zM141 0v1413h332v-1413h-332z" />
<glyph unicode="&#xce;" horiz-adv-x="612" d="M-43 1692l354 247l346 -243l-116 -187l-234 146l-235 -148zM141 0v1413h332v-1413h-332z" />
<glyph unicode="&#xcf;" horiz-adv-x="612" d="M-59 1737q0 69 43.5 114t109.5 45q67 0 112.5 -45.5t45.5 -113.5q0 -66 -46 -110t-112 -44q-64 0 -108.5 44.5t-44.5 109.5zM141 0v1413h332v-1413h-332zM362 1737q0 69 44 114t110 45q67 0 112.5 -45.5t45.5 -113.5q0 -65 -46.5 -109.5t-111.5 -44.5q-66 0 -110 44.5 t-44 109.5z" />
<glyph unicode="&#xd0;" horiz-adv-x="1376" d="M45 578v280h117v555h557q284 0 422 -141q85 -86 118 -221.5t33 -327.5q0 -185 -33.5 -328.5t-125.5 -242.5q-145 -152 -408 -152h-563v578h-117zM483 289h217q148 0 199 82q29 44 38 122t9 220q0 139 -11.5 223t-41.5 123q-51 65 -191 65h-219v-266h203v-280h-203v-289z " />
<glyph unicode="&#xd1;" horiz-adv-x="1460" d="M141 0v1413h420l451 -964l-11 964h318v-1413h-420l-450 965l10 -965h-318zM371 1765q74 79 135 117.5t141 38.5q62 0 145 -34t119 -34q57 0 129 76l129 -162q-72 -79 -133.5 -118t-140.5 -39q-63 0 -146 33.5t-120 33.5q-60 0 -129 -73z" />
<glyph unicode="&#xd2;" horiz-adv-x="1404" d="M84 692q0 205 39 351.5t135 242.5q158 158 453 158q297 0 450 -156q87 -88 123.5 -228t36.5 -341q0 -206 -39 -351t-135 -241q-161 -158 -455 -158q-298 0 -448 156q-87 90 -123.5 228t-36.5 339zM336 1784l145 217l441 -313l-119 -185zM436 705q0 -159 16.5 -251.5 t57.5 -138.5q59 -65 186 -65q135 0 201 78q39 49 55.5 136t16.5 243q0 162 -17 253t-57 136q-60 67 -186 67q-135 0 -201 -78q-40 -49 -56 -135t-16 -245z" />
<glyph unicode="&#xd3;" horiz-adv-x="1404" d="M84 692q0 205 39 351.5t135 242.5q158 158 453 158q297 0 450 -156q87 -88 123.5 -228t36.5 -341q0 -206 -39 -351t-135 -241q-161 -158 -455 -158q-298 0 -448 156q-87 90 -123.5 228t-36.5 339zM436 705q0 -159 16.5 -251.5t57.5 -138.5q59 -65 186 -65q135 0 201 78 q39 49 55.5 136t16.5 243q0 162 -17 253t-57 136q-60 67 -186 67q-135 0 -201 -78q-40 -49 -56 -135t-16 -245zM455 1688l440 313l145 -217l-467 -281z" />
<glyph unicode="&#xd4;" horiz-adv-x="1404" d="M84 692q0 205 39 351.5t135 242.5q158 158 453 158q297 0 450 -156q87 -88 123.5 -228t36.5 -341q0 -206 -39 -351t-135 -241q-161 -158 -455 -158q-298 0 -448 156q-87 90 -123.5 228t-36.5 339zM352 1692l355 247l346 -243l-117 -187l-234 146l-235 -148zM436 705 q0 -159 16.5 -251.5t57.5 -138.5q59 -65 186 -65q135 0 201 78q39 49 55.5 136t16.5 243q0 162 -17 253t-57 136q-60 67 -186 67q-135 0 -201 -78q-40 -49 -56 -135t-16 -245z" />
<glyph unicode="&#xd5;" horiz-adv-x="1404" d="M84 692q0 205 39 351.5t135 242.5q158 158 453 158q297 0 450 -156q87 -88 123.5 -228t36.5 -341q0 -206 -39 -351t-135 -241q-161 -158 -455 -158q-298 0 -448 156q-87 90 -123.5 228t-36.5 339zM303 1765q73 79 134.5 117.5t142.5 38.5q62 0 145 -34t119 -34 q57 0 129 76l129 -162q-72 -79 -133.5 -118t-141.5 -39q-63 0 -146 33.5t-120 33.5q-60 0 -129 -73zM436 705q0 -159 16.5 -251.5t57.5 -138.5q59 -65 186 -65q135 0 201 78q39 49 55.5 136t16.5 243q0 162 -17 253t-57 136q-60 67 -186 67q-135 0 -201 -78 q-40 -49 -56 -135t-16 -245z" />
<glyph unicode="&#xd6;" horiz-adv-x="1404" d="M84 692q0 205 39 351.5t135 242.5q158 158 453 158q297 0 450 -156q87 -88 123.5 -228t36.5 -341q0 -206 -39 -351t-135 -241q-161 -158 -455 -158q-298 0 -448 156q-87 90 -123.5 228t-36.5 339zM336 1737q0 69 43.5 114t109.5 45q67 0 112.5 -45.5t45.5 -113.5 q0 -66 -46 -110t-112 -44q-64 0 -108.5 44.5t-44.5 109.5zM436 705q0 -159 16.5 -251.5t57.5 -138.5q59 -65 186 -65q135 0 201 78q39 49 55.5 136t16.5 243q0 162 -17 253t-57 136q-60 67 -186 67q-135 0 -201 -78q-40 -49 -56 -135t-16 -245zM758 1737q0 69 43.5 114 t109.5 45q67 0 112.5 -45.5t45.5 -113.5q0 -65 -46.5 -109.5t-111.5 -44.5q-66 0 -109.5 44.5t-43.5 109.5z" />
<glyph unicode="&#xd7;" horiz-adv-x="1161" d="M109 279l278 276l-278 276l198 197l275 -278l274 278l197 -197l-277 -276l277 -276l-197 -197l-274 280l-277 -280z" />
<glyph unicode="&#xd8;" horiz-adv-x="1406" d="M55 -23l135 207q-60 90 -85 213t-25 293q0 202 36.5 346t125.5 240q158 168 467 168q156 0 268 -41l123 188l237 -155l-133 -207q111 -167 111 -508q0 -207 -40 -354.5t-140 -243.5q-157 -154 -449 -154q-150 0 -268 43l-123 -190zM393 705q0 -122 8 -195l428 661 q-55 19 -124 19q-175 0 -244 -100q-40 -56 -54 -147.5t-14 -237.5zM565 240q56 -17 123 -17q177 0 248 105q63 96 63 379q0 113 -8 192z" />
<glyph unicode="&#xd9;" horiz-adv-x="1388" d="M141 498v915h332v-909q0 -53 3 -84.5t15 -65.5t35.5 -51.5t65.5 -29t104 -11.5q60 0 100 10.5t64 28t36 50t15.5 66t3.5 87.5v909h332v-905q0 -235 -94 -354q-141 -179 -469 -179q-309 0 -442 158q-101 120 -101 365zM328 1784l145 217l440 -313l-118 -185z" />
<glyph unicode="&#xda;" horiz-adv-x="1388" d="M141 498v915h332v-909q0 -53 3 -84.5t15 -65.5t35.5 -51.5t65.5 -29t104 -11.5q60 0 100 10.5t64 28t36 50t15.5 66t3.5 87.5v909h332v-905q0 -235 -94 -354q-141 -179 -469 -179q-309 0 -442 158q-101 120 -101 365zM446 1688l441 313l145 -217l-467 -281z" />
<glyph unicode="&#xdb;" horiz-adv-x="1388" d="M141 498v915h332v-909q0 -53 3 -84.5t15 -65.5t35.5 -51.5t65.5 -29t104 -11.5q60 0 100 10.5t64 28t36 50t15.5 66t3.5 87.5v909h332v-905q0 -235 -94 -354q-141 -179 -469 -179q-309 0 -442 158q-101 120 -101 365zM344 1692l354 247l346 -243l-116 -187l-234 146 l-235 -148z" />
<glyph unicode="&#xdc;" horiz-adv-x="1388" d="M141 498v915h332v-909q0 -53 3 -84.5t15 -65.5t35.5 -51.5t65.5 -29t104 -11.5q60 0 100 10.5t64 28t36 50t15.5 66t3.5 87.5v909h332v-905q0 -235 -94 -354q-141 -179 -469 -179q-309 0 -442 158q-101 120 -101 365zM328 1737q0 69 43.5 114t109.5 45q67 0 112.5 -45.5 t45.5 -113.5q0 -66 -46 -110t-112 -44q-64 0 -108.5 44.5t-44.5 109.5zM750 1737q0 69 43.5 114t109.5 45q67 0 112.5 -45.5t45.5 -113.5q0 -65 -46.5 -109.5t-111.5 -44.5q-66 0 -109.5 44.5t-43.5 109.5z" />
<glyph unicode="&#xdd;" horiz-adv-x="1163" d="M-20 1413h378l222 -551l227 551h379l-445 -887v-526h-331v526zM334 1688l440 313l146 -217l-467 -281z" />
<glyph unicode="&#xde;" horiz-adv-x="1257" d="M141 0v1413h332v-229h205q211 0 330 -84q166 -117 166 -402q0 -294 -170 -411q-120 -84 -336 -84h-195v-203h-332zM473 487h189q92 0 129 37q40 40 40 168q0 140 -49 180q-33 27 -129 27h-180v-412z" />
<glyph unicode="&#xdf;" horiz-adv-x="1323" d="M129 0v930q0 53 4.5 103t19.5 114t39 118t66.5 107.5t98.5 91t138.5 61t182.5 23.5q231 0 358 -127q119 -122 119 -366q0 -103 -14 -203h-27q-55 0 -84 -0.5t-66 -3t-55.5 -8t-36.5 -15t-25 -24t-7 -35.5q0 -29 24 -50t62 -35t84 -28.5t92 -38.5t84 -58t62 -93.5 t24 -138.5q0 -174 -135 -267q-114 -82 -281 -82q-94 0 -190.5 28t-153.5 85l131 219q44 -41 108 -64.5t123 -23.5q50 0 70.5 17.5t20.5 58.5q0 32 -24 55.5t-62 39.5t-84.5 32t-92.5 40t-84 57.5t-62 91.5t-24 134q0 134 86 220q80 80 224 106q4 20 4 45q0 47 -8 73.5 t-29 49.5q-32 35 -115 35q-62 0 -107.5 -18t-71 -45.5t-40.5 -70.5t-19.5 -83.5t-4.5 -93.5v-963h-322z" />
<glyph unicode="&#xe0;" horiz-adv-x="1069" d="M51 297q0 182 129 270q124 84 365 84h110v27q0 86 -33 117.5t-120 31.5q-151 0 -246 -92l-158 183q75 82 178.5 115.5t239.5 33.5q226 0 330 -92t104 -309v-666h-272l-2 133q-110 -160 -303 -160q-141 0 -230 82q-92 86 -92 242zM229 1522l199 170l334 -404l-172 -153z M352 311q0 -104 74 -104q72 0 149 69t87 170h-132q-95 0 -136.5 -25.5t-41.5 -109.5z" />
<glyph unicode="&#xe1;" horiz-adv-x="1069" d="M51 297q0 182 129 270q124 84 365 84h110v27q0 86 -33 117.5t-120 31.5q-151 0 -246 -92l-158 183q75 82 178.5 115.5t239.5 33.5q226 0 330 -92t104 -309v-666h-272l-2 133q-110 -160 -303 -160q-141 0 -230 82q-92 86 -92 242zM297 1288l334 404l196 -170l-358 -387z M352 311q0 -104 74 -104q72 0 149 69t87 170h-132q-95 0 -136.5 -25.5t-41.5 -109.5z" />
<glyph unicode="&#xe2;" horiz-adv-x="1069" d="M51 297q0 182 129 270q124 84 365 84h110v27q0 86 -33 117.5t-120 31.5q-151 0 -246 -92l-158 183q75 82 178.5 115.5t239.5 33.5q226 0 330 -92t104 -309v-666h-272l-2 133q-110 -160 -303 -160q-141 0 -230 82q-92 86 -92 242zM207 1303l334 335l325 -331l-157 -160 l-172 182l-175 -184zM352 311q0 -104 74 -104q72 0 149 69t87 170h-132q-95 0 -136.5 -25.5t-41.5 -109.5z" />
<glyph unicode="&#xe3;" horiz-adv-x="1069" d="M51 297q0 182 129 270q124 84 365 84h110v27q0 86 -33 117.5t-120 31.5q-151 0 -246 -92l-158 183q75 82 178.5 115.5t239.5 33.5q226 0 330 -92t104 -309v-666h-272l-2 133q-110 -160 -303 -160q-141 0 -230 82q-92 86 -92 242zM137 1397q73 78 134.5 116.5t142.5 38.5 q62 0 145 -33.5t119 -33.5q57 0 129 76l129 -162q-73 -80 -134 -119t-140 -39q-63 0 -146.5 34t-120.5 34q-59 0 -129 -74zM352 311q0 -104 74 -104q72 0 149 69t87 170h-132q-95 0 -136.5 -25.5t-41.5 -109.5z" />
<glyph unicode="&#xe4;" horiz-adv-x="1069" d="M51 297q0 182 129 270q124 84 365 84h110v27q0 86 -33 117.5t-120 31.5q-151 0 -246 -92l-158 183q75 82 178.5 115.5t239.5 33.5q226 0 330 -92t104 -309v-666h-272l-2 133q-110 -160 -303 -160q-141 0 -230 82q-92 86 -92 242zM170 1368q0 69 44 114.5t110 45.5 t111.5 -45.5t45.5 -114.5q0 -66 -45.5 -110t-111.5 -44q-64 0 -109 45t-45 109zM352 311q0 -104 74 -104q72 0 149 69t87 170h-132q-95 0 -136.5 -25.5t-41.5 -109.5zM592 1368q0 69 43.5 114.5t109.5 45.5q67 0 112.5 -46t45.5 -114q0 -65 -46.5 -109.5t-111.5 -44.5 q-66 0 -109.5 44.5t-43.5 109.5z" />
<glyph unicode="&#xe5;" horiz-adv-x="1069" d="M51 297q0 182 129 270q124 84 365 84h110v27q0 86 -33 117.5t-120 31.5q-151 0 -246 -92l-158 183q75 82 178.5 115.5t239.5 33.5q226 0 330 -92t104 -309v-666h-272l-2 133q-110 -160 -303 -160q-141 0 -230 82q-92 86 -92 242zM252 1432q0 116 79 187t206 71 q126 0 205 -71t79 -187t-80 -187t-204 -71t-204.5 71t-80.5 187zM352 311q0 -104 74 -104q72 0 149 69t87 170h-132q-95 0 -136.5 -25.5t-41.5 -109.5zM451 1430q0 -45 23.5 -68t62.5 -23t62.5 24.5t23.5 70.5q0 45 -23 66.5t-61 21.5q-41 0 -64.5 -23t-23.5 -69z" />
<glyph unicode="&#xe6;" horiz-adv-x="1675" d="M51 301q0 65 18 118t47 88t73 61t87 40t98.5 22t98.5 10.5t96 2.5h101v31q0 80 -35.5 116.5t-132.5 36.5q-152 0 -248 -86l-145 189q72 72 176.5 104.5t214.5 32.5q231 0 327 -143q110 145 328 145q109 0 193 -37.5t135 -104t76.5 -153.5t25.5 -190q0 -51 -8 -133 l-606 -7q1 -57 7 -92.5t23.5 -67.5t52 -46.5t89.5 -14.5q140 0 272 113l162 -193q-85 -83 -196 -125.5t-234 -42.5q-255 0 -359 183q-128 -183 -372 -183q-174 0 -269.5 86t-95.5 240zM369 311q0 -57 20 -81.5t76 -24.5q54 0 94.5 22.5t63.5 60t35 78.5t14 85h-109 q-110 0 -152 -27t-42 -113zM977 643l295 -2q-2 108 -29.5 152.5t-109.5 44.5q-89 0 -121.5 -47.5t-34.5 -147.5z" />
<glyph unicode="&#xe7;" horiz-adv-x="983" d="M86 510q0 295 139 434q126 123 350 123q227 0 345 -123l-181 -215q-65 57 -161 57q-94 0 -125 -58t-31 -204q0 -147 27.5 -208.5t105.5 -61.5q104 0 188 94l191 -203q-127 -141 -328 -163l-4 -52q71 -32 100 -76t29 -106q0 -101 -68 -169t-190 -68q-151 0 -244 116 l125 129q48 -63 105 -63q27 0 44 14t17 41q0 64 -119 98l15 144q-127 25 -207 112q-123 134 -123 408z" />
<glyph unicode="&#xe8;" horiz-adv-x="1114" d="M86 502q0 296 137 438q128 131 359 131q99 0 175.5 -25t126.5 -69t81.5 -108.5t45 -138t13.5 -163.5q0 -58 -8 -123l-617 -6q1 -56 7.5 -91.5t24.5 -65.5t53.5 -44t90.5 -14q156 0 277 111l158 -184q-172 -175 -445 -175q-216 0 -338 107q-141 126 -141 420zM256 1522 l199 170l333 -404l-172 -153zM403 649h316q-1 50 -6.5 81.5t-21.5 57.5t-45.5 38t-76.5 12q-91 0 -127 -47.5t-39 -141.5z" />
<glyph unicode="&#xe9;" horiz-adv-x="1114" d="M86 502q0 296 137 438q128 131 359 131q99 0 175.5 -25t126.5 -69t81.5 -108.5t45 -138t13.5 -163.5q0 -58 -8 -123l-617 -6q1 -56 7.5 -91.5t24.5 -65.5t53.5 -44t90.5 -14q156 0 277 111l158 -184q-172 -175 -445 -175q-216 0 -338 107q-141 126 -141 420zM324 1288 l333 404l197 -170l-358 -387zM403 649h316q-1 50 -6.5 81.5t-21.5 57.5t-45.5 38t-76.5 12q-91 0 -127 -47.5t-39 -141.5z" />
<glyph unicode="&#xea;" horiz-adv-x="1114" d="M86 502q0 296 137 438q128 131 359 131q99 0 175.5 -25t126.5 -69t81.5 -108.5t45 -138t13.5 -163.5q0 -58 -8 -123l-617 -6q1 -56 7.5 -91.5t24.5 -65.5t53.5 -44t90.5 -14q156 0 277 111l158 -184q-172 -175 -445 -175q-216 0 -338 107q-141 126 -141 420zM233 1303 l334 335l326 -331l-158 -160l-172 182l-174 -184zM403 649h316q-1 50 -6.5 81.5t-21.5 57.5t-45.5 38t-76.5 12q-91 0 -127 -47.5t-39 -141.5z" />
<glyph unicode="&#xeb;" horiz-adv-x="1114" d="M86 502q0 296 137 438q128 131 359 131q99 0 175.5 -25t126.5 -69t81.5 -108.5t45 -138t13.5 -163.5q0 -58 -8 -123l-617 -6q1 -56 7.5 -91.5t24.5 -65.5t53.5 -44t90.5 -14q156 0 277 111l158 -184q-172 -175 -445 -175q-216 0 -338 107q-141 126 -141 420zM197 1368 q0 69 43.5 114.5t109.5 45.5t112 -46t46 -114q0 -66 -46 -110t-112 -44q-64 0 -108.5 44.5t-44.5 109.5zM403 649h316q-1 50 -6.5 81.5t-21.5 57.5t-45.5 38t-76.5 12q-91 0 -127 -47.5t-39 -141.5zM618 1368q0 69 44 114.5t110 45.5t112 -46t46 -114q0 -65 -46.5 -109.5 t-111.5 -44.5q-66 0 -110 44.5t-44 109.5z" />
<glyph unicode="&#xec;" horiz-adv-x="577" d="M-18 1522l198 170l334 -404l-172 -153zM129 0v1044h322v-1044h-322z" />
<glyph unicode="&#xed;" horiz-adv-x="577" d="M49 1288l334 404l197 -170l-359 -387zM129 0v1044h322v-1044h-322z" />
<glyph unicode="&#xee;" horiz-adv-x="577" d="M-41 1303l334 335l325 -331l-157 -160l-172 182l-174 -184zM129 0v1044h322v-1044h-322z" />
<glyph unicode="&#xef;" horiz-adv-x="577" d="M-78 1368q0 69 44 114.5t110 45.5t111.5 -45.5t45.5 -114.5q0 -66 -45.5 -110t-111.5 -44q-64 0 -109 45t-45 109zM129 0v1044h322v-1044h-322zM344 1368q0 69 44 114.5t110 45.5t111.5 -45.5t45.5 -114.5q0 -65 -46 -109.5t-111 -44.5q-66 0 -110 44.5t-44 109.5z" />
<glyph unicode="&#xf0;" horiz-adv-x="1200" d="M86 481q0 225 116.5 356.5t352.5 131.5q148 0 225 -68q-8 127 -69 225l-131 -102l-129 160l110 88q-71 51 -196 108l135 250q177 -76 301 -168l155 125l131 -166l-135 -106q86 -114 125 -262t39 -351q0 -79 -5.5 -148t-21.5 -145t-41 -137.5t-67.5 -118.5t-98 -95.5 t-135 -61.5t-176.5 -23q-237 0 -361 137t-124 371zM422 489q0 -141 40 -195t138 -54q107 0 145.5 65t38.5 197q0 118 -43.5 169.5t-144.5 51.5q-103 0 -138.5 -52t-35.5 -182z" />
<glyph unicode="&#xf1;" horiz-adv-x="1165" d="M129 0v1044h299v-159q100 186 311 186q151 0 229.5 -96.5t78.5 -276.5v-698h-324v647q0 66 -17 96.5t-61 30.5q-82 0 -138 -91.5t-56 -262.5v-420h-322zM178 1397q73 78 134.5 116.5t142.5 38.5q62 0 145 -33.5t119 -33.5q57 0 129 76l129 -162q-48 -52 -84 -83t-86 -53 t-105 -22q-63 0 -146 34t-120 34q-59 0 -129 -74z" />
<glyph unicode="&#xf2;" horiz-adv-x="1146" d="M86 508q0 161 32 264t109 178q130 127 355 127q221 0 342 -112q76 -70 106.5 -171.5t30.5 -258.5q0 -161 -32 -264t-111 -179q-129 -123 -353 -123q-218 0 -340 113q-77 70 -108 170t-31 256zM266 1522l199 170l334 -404l-172 -153zM416 514q0 -190 47 -240 q31 -36 106 -36q77 0 111 43q53 62 53 251q0 181 -49 238q-30 37 -102 37q-83 0 -115 -41q-51 -59 -51 -252z" />
<glyph unicode="&#xf3;" horiz-adv-x="1146" d="M86 508q0 161 32 264t109 178q130 127 355 127q221 0 342 -112q76 -70 106.5 -171.5t30.5 -258.5q0 -161 -32 -264t-111 -179q-129 -123 -353 -123q-218 0 -340 113q-77 70 -108 170t-31 256zM334 1288l334 404l196 -170l-358 -387zM416 514q0 -190 47 -240 q31 -36 106 -36q77 0 111 43q53 62 53 251q0 181 -49 238q-30 37 -102 37q-83 0 -115 -41q-51 -59 -51 -252z" />
<glyph unicode="&#xf4;" horiz-adv-x="1146" d="M86 508q0 161 32 264t109 178q130 127 355 127q221 0 342 -112q76 -70 106.5 -171.5t30.5 -258.5q0 -161 -32 -264t-111 -179q-129 -123 -353 -123q-218 0 -340 113q-77 70 -108 170t-31 256zM244 1303l334 335l325 -331l-158 -160l-172 182l-174 -184zM416 514 q0 -190 47 -240q31 -36 106 -36q77 0 111 43q53 62 53 251q0 181 -49 238q-30 37 -102 37q-83 0 -115 -41q-51 -59 -51 -252z" />
<glyph unicode="&#xf5;" horiz-adv-x="1146" d="M86 508q0 161 32 264t109 178q130 127 355 127q221 0 342 -112q76 -70 106.5 -171.5t30.5 -258.5q0 -161 -32 -264t-111 -179q-129 -123 -353 -123q-218 0 -340 113q-77 70 -108 170t-31 256zM174 1397q73 78 134.5 116.5t142.5 38.5q62 0 145 -33.5t119 -33.5 q57 0 129 76l129 -162q-48 -52 -84 -83t-86 -53t-105 -22q-63 0 -146 34t-120 34q-59 0 -129 -74zM416 514q0 -190 47 -240q31 -36 106 -36q77 0 111 43q53 62 53 251q0 181 -49 238q-30 37 -102 37q-83 0 -115 -41q-51 -59 -51 -252z" />
<glyph unicode="&#xf6;" horiz-adv-x="1146" d="M86 508q0 161 32 264t109 178q130 127 355 127q221 0 342 -112q76 -70 106.5 -171.5t30.5 -258.5q0 -161 -32 -264t-111 -179q-129 -123 -353 -123q-218 0 -340 113q-77 70 -108 170t-31 256zM207 1368q0 69 43.5 114.5t109.5 45.5t112 -46t46 -114q0 -66 -46 -110 t-112 -44q-64 0 -108.5 44.5t-44.5 109.5zM416 514q0 -190 47 -240q31 -36 106 -36q77 0 111 43q53 62 53 251q0 181 -49 238q-30 37 -102 37q-83 0 -115 -41q-51 -59 -51 -252zM629 1368q0 69 43.5 114.5t109.5 45.5t112 -46t46 -114q0 -65 -46.5 -109.5t-111.5 -44.5 q-66 0 -109.5 44.5t-43.5 109.5z" />
<glyph unicode="&#xf7;" horiz-adv-x="1161" d="M125 430v250h913v-250h-913zM432 195q0 62 44 104.5t106 42.5q64 0 105.5 -42t41.5 -105q0 -64 -41.5 -107t-105.5 -43q-62 0 -106 44.5t-44 105.5zM432 915q0 62 43.5 106t106.5 44q64 0 106.5 -43.5t42.5 -106.5q0 -62 -42.5 -104.5t-106.5 -42.5q-63 0 -106.5 42.5 t-43.5 104.5z" />
<glyph unicode="&#xf8;" horiz-adv-x="1173" d="M55 -27l123 172q-92 129 -92 359q0 289 145 434q130 133 359 133q84 0 155 -18l117 184l242 -166l-125 -172q94 -127 94 -362q0 -288 -145 -433q-131 -131 -359 -131q-81 0 -155 19l-119 -185zM422 506q0 -170 45 -223q33 -39 106 -39q84 0 119 53q45 59 45 244 q0 179 -55 231q-33 29 -94 29q-78 0 -113 -43q-53 -59 -53 -252z" />
<glyph unicode="&#xf9;" horiz-adv-x="1159" d="M129 344v700h320v-651q0 -62 17.5 -94.5t61.5 -32.5q74 0 128.5 90.5t54.5 259.5v428h319v-1044h-297v160q-102 -187 -305 -187q-148 0 -223.5 95t-75.5 276zM272 1522l199 170l334 -404l-172 -153z" />
<glyph unicode="&#xfa;" horiz-adv-x="1159" d="M129 344v700h320v-651q0 -62 17.5 -94.5t61.5 -32.5q74 0 128.5 90.5t54.5 259.5v428h319v-1044h-297v160q-102 -187 -305 -187q-148 0 -223.5 95t-75.5 276zM340 1288l334 404l196 -170l-358 -387z" />
<glyph unicode="&#xfb;" horiz-adv-x="1159" d="M129 344v700h320v-651q0 -62 17.5 -94.5t61.5 -32.5q74 0 128.5 90.5t54.5 259.5v428h319v-1044h-297v160q-102 -187 -305 -187q-148 0 -223.5 95t-75.5 276zM250 1303l334 335l325 -331l-157 -160l-172 182l-174 -184z" />
<glyph unicode="&#xfc;" horiz-adv-x="1159" d="M129 344v700h320v-651q0 -62 17.5 -94.5t61.5 -32.5q74 0 128.5 90.5t54.5 259.5v428h319v-1044h-297v160q-102 -187 -305 -187q-148 0 -223.5 95t-75.5 276zM213 1368q0 69 44 114.5t110 45.5t111.5 -45.5t45.5 -114.5q0 -66 -45.5 -110t-111.5 -44q-65 0 -109.5 45 t-44.5 109zM635 1368q0 69 43.5 114.5t109.5 45.5t112 -46t46 -114q0 -65 -46.5 -109.5t-111.5 -44.5q-66 0 -109.5 44.5t-43.5 109.5z" />
<glyph unicode="&#xfd;" horiz-adv-x="1095" d="M20 1044h342l199 -802l180 802h334l-280 -983q-75 -266 -200.5 -402t-313.5 -136q-61 0 -117.5 13.5t-87.5 35.5l96 260q42 -25 100 -25q78 0 124 52.5t81 179.5h-147zM307 1288l334 404l197 -170l-359 -387z" />
<glyph unicode="&#xfe;" horiz-adv-x="1183" d="M129 -471v2038h322v-639q50 70 125.5 106.5t162.5 36.5q135 0 228 -90q131 -131 131 -453t-148 -456q-109 -97 -276 -97q-129 0 -223 74v-520h-322zM438 438q0 -95 45 -149q42 -51 129 -51q86 0 117 61t31 227q0 148 -23.5 207.5t-83.5 59.5q-74 0 -137 -86 q-78 -109 -78 -269z" />
<glyph unicode="&#xff;" horiz-adv-x="1095" d="M20 1044h342l199 -802l180 802h334l-280 -983q-75 -266 -200.5 -402t-313.5 -136q-61 0 -117.5 13.5t-87.5 35.5l96 260q42 -25 100 -25q78 0 124 52.5t81 179.5h-147zM180 1368q0 69 44 114.5t110 45.5t112 -46t46 -114q0 -66 -46 -110t-112 -44q-64 0 -109 45t-45 109z M602 1368q0 69 44 114.5t110 45.5t111.5 -45.5t45.5 -114.5q0 -65 -46 -109.5t-111 -44.5q-66 0 -110 44.5t-44 109.5z" />
<glyph unicode="&#x152;" horiz-adv-x="1984" d="M84 709q0 80 5.5 144.5t20.5 138t47.5 139.5t80.5 120q160 174 475 174q60 0 166.5 -6t158.5 -6h830v-280h-604q53 -92 57 -277h504v-278h-504q-4 -205 -59 -299h616v-279h-856q-67 0 -160 -7t-151 -7q-316 0 -473 174q-48 53 -80.5 120t-47.5 143t-20.5 141.5 t-5.5 144.5zM436 715q0 -81 1 -123.5t6 -99t16 -83.5t30 -59.5t48 -46.5t71 -23.5t99 -9.5q58 0 101 10t72.5 24t48.5 47t29.5 59t15.5 82t6 94.5t1 115.5q0 55 -0.5 87t-2.5 75.5t-5.5 67.5t-10 55.5t-16.5 48.5t-24.5 37.5t-33.5 30.5t-44.5 20t-56.5 13.5t-70 3.5 q-60 0 -104 -10t-74.5 -23.5t-50 -46.5t-30.5 -58t-15.5 -81.5t-5.5 -92.5t-1 -114z" />
<glyph unicode="&#x153;" horiz-adv-x="1779" d="M86 504q0 262 127 407q136 160 360 160q216 0 336 -149q120 149 342 149q115 0 201.5 -39.5t136.5 -110t74.5 -158t24.5 -192.5q0 -59 -9 -120l-620 -7q0 -119 33 -170t137 -51q163 0 289 113l159 -189q-84 -84 -199 -128t-243 -44q-227 0 -338 146q-129 -148 -346 -148 q-208 0 -332 131q-133 139 -133 400zM420 498q0 -52 2.5 -86.5t11 -70t23.5 -56t41.5 -33t64.5 -12.5q42 0 73 15t49.5 40.5t29.5 66t14.5 83t3.5 100.5q0 137 -29 197.5t-118 60.5q-100 0 -133 -72.5t-33 -232.5zM1063 643h311q0 109 -28.5 152t-118.5 43q-93 0 -127 -45 t-37 -150z" />
<glyph unicode="&#x178;" horiz-adv-x="1163" d="M-20 1413h378l222 -551l227 551h379l-445 -887v-526h-331v526zM215 1737q0 69 44 114t110 45q67 0 112 -45t45 -114q0 -66 -45.5 -110t-111.5 -44q-65 0 -109.5 44.5t-44.5 109.5zM637 1737q0 69 44 114t110 45q67 0 112 -45t45 -114q0 -65 -46 -109.5t-111 -44.5 q-66 0 -110 44.5t-44 109.5z" />
<glyph unicode="&#x2c6;" horiz-adv-x="409" d="M-125 1303l334 335l326 -331l-158 -160l-172 182l-174 -184z" />
<glyph unicode="&#x2dc;" horiz-adv-x="409" d="M-195 1397q73 78 134.5 116.5t142.5 38.5q62 0 145 -33.5t119 -33.5q57 0 129 76l129 -162q-73 -80 -134 -119t-140 -39q-63 0 -146.5 34t-120.5 34q-59 0 -129 -74z" />
<glyph unicode="&#x2000;" horiz-adv-x="1001" />
<glyph unicode="&#x2001;" horiz-adv-x="2003" />
<glyph unicode="&#x2002;" horiz-adv-x="1001" />
<glyph unicode="&#x2003;" horiz-adv-x="2003" />
<glyph unicode="&#x2004;" horiz-adv-x="667" />
<glyph unicode="&#x2005;" horiz-adv-x="500" />
<glyph unicode="&#x2006;" horiz-adv-x="333" />
<glyph unicode="&#x2007;" horiz-adv-x="333" />
<glyph unicode="&#x2008;" horiz-adv-x="250" />
<glyph unicode="&#x2009;" horiz-adv-x="400" />
<glyph unicode="&#x200a;" horiz-adv-x="111" />
<glyph unicode="&#x2010;" horiz-adv-x="653" d="M29 408v294h596v-294h-596z" />
<glyph unicode="&#x2011;" horiz-adv-x="653" d="M29 408v294h596v-294h-596z" />
<glyph unicode="&#x2012;" horiz-adv-x="653" d="M29 408v294h596v-294h-596z" />
<glyph unicode="&#x2013;" horiz-adv-x="1024" d="M29 408v294h966v-294h-966z" />
<glyph unicode="&#x2014;" horiz-adv-x="2048" d="M29 408v294h1990v-294h-1990z" />
<glyph unicode="&#x2018;" horiz-adv-x="573" d="M98 1133q0 191 207 505l199 -102l-22.5 -45t-26.5 -55t-21 -47.5t-23 -57.5t-16 -51q82 -47 82 -152q0 -81 -51.5 -134.5t-138.5 -53.5q-86 0 -137.5 54t-51.5 139z" />
<glyph unicode="&#x2019;" horiz-adv-x="573" d="M70 987q85 165 110 256q-82 47 -82 152q0 80 51.5 134t137.5 54q87 0 137.5 -53.5t50.5 -138.5q0 -197 -205 -506z" />
<glyph unicode="&#x201a;" horiz-adv-x="571" d="M70 -227q3 7 16 32t18 36t16.5 34t17.5 38t14.5 35t14.5 38.5t11 36.5q-80 45 -80 147q0 80 51.5 134t135.5 54q86 0 137 -53.5t51 -136.5q0 -190 -205 -496z" />
<glyph unicode="&#x201c;" horiz-adv-x="1056" d="M98 1098q0 193 205 495l199 -100q-5 -9 -19 -37l-21 -42t-19.5 -40.5t-20 -45t-15.5 -41.5t-14 -44q80 -49 80 -149q0 -81 -50.5 -134t-137.5 -53q-85 0 -136 53.5t-51 137.5zM584 1098q0 194 204 495l199 -100q-3 -7 -16 -32t-18 -36t-16.5 -34t-17.5 -38t-14.5 -35 t-14.5 -38.5t-11 -36.5q82 -50 82 -149q0 -80 -52 -133.5t-137 -53.5q-86 0 -137 53t-51 138z" />
<glyph unicode="&#x201d;" horiz-adv-x="1056" d="M70 954q3 7 16 32t18 36t16.5 34t17.5 38t14.5 35t14.5 38.5t11 36.5q-80 45 -80 150q0 79 51.5 132.5t135.5 53.5q86 0 137 -53.5t51 -136.5q0 -188 -205 -498zM557 954q6 13 27 56t32 66.5t25.5 60.5t22.5 67q-80 45 -80 150q0 79 51 132.5t135 53.5q86 0 137 -53.5 t51 -136.5q0 -193 -204 -498z" />
<glyph unicode="&#x201e;" horiz-adv-x="1056" d="M70 -227q3 7 16 32t18 36t16.5 34t17.5 38t14.5 35t14.5 38.5t11 36.5q-80 45 -80 147q0 80 51.5 134t135.5 54q86 0 137 -53.5t51 -136.5q0 -190 -205 -496zM557 -227q6 13 27 56t32 66.5t25.5 60.5t22.5 67q-80 45 -80 147q0 80 51 134t135 54q86 0 137 -53.5 t51 -136.5q0 -195 -204 -496z" />
<glyph unicode="&#x2022;" horiz-adv-x="784" d="M84 731q0 131 87 220t220 89q134 0 222.5 -89.5t88.5 -219.5q0 -128 -89 -218.5t-222 -90.5t-220 90.5t-87 218.5z" />
<glyph unicode="&#x2026;" horiz-adv-x="2027" d="M145 174q0 85 55 140t138 55t137.5 -55t54.5 -140q0 -83 -54.5 -138.5t-137.5 -55.5t-138 55.5t-55 138.5zM821 174q0 85 55 140t138 55q85 0 139.5 -55t54.5 -140q0 -83 -55.5 -138.5t-138.5 -55.5q-82 0 -137.5 55.5t-55.5 138.5zM1497 174q0 85 55 140t138 55 q85 0 139.5 -55t54.5 -140q0 -83 -55.5 -138.5t-138.5 -55.5q-82 0 -137.5 55.5t-55.5 138.5z" />
<glyph unicode="&#x202f;" horiz-adv-x="400" />
<glyph unicode="&#x2039;" horiz-adv-x="735" d="M37 555l416 489l215 -165l-267 -324l267 -322l-215 -167z" />
<glyph unicode="&#x203a;" horiz-adv-x="735" d="M70 231l264 324l-264 322l213 167l417 -489l-417 -489z" />
<glyph unicode="&#x205f;" horiz-adv-x="500" />
<glyph unicode="&#x20ac;" d="M4 422l55 215h97v129h-152l55 215h121q32 158 119 266q155 187 469 187q208 0 346 -66l-82 -258q-117 55 -274 55q-118 0 -175.5 -43.5t-78.5 -140.5h487l-55 -215h-449l2 -129h412l-53 -215h-338q21 -93 72.5 -135.5t152.5 -42.5q166 0 338 106v-284q-154 -86 -352 -86 q-294 0 -438 204q-71 97 -101 238h-178z" />
<glyph unicode="&#x2122;" horiz-adv-x="1312" d="M16 1290v164h459v-164h-137v-389h-184v389h-138zM537 901l36 553h242l80 -278l80 278h242l34 -553h-178l-10 352l-88 -329h-164l-86 331l-12 -354h-176z" />
<glyph unicode="&#x25fc;" horiz-adv-x="1044" d="M0 0v1044h1044v-1044h-1044z" />
<glyph unicode="&#xfb02;" horiz-adv-x="1394" d="M61 739v281h156v53q0 447 434 447q90 0 160 -23l-45 -264q-37 12 -92 12q-46 0 -74 -11t-41 -36.5t-16.5 -53t-3.5 -75.5v-49h200v-281h-200v-739h-322v739h-156zM944 0v1567h322v-1567h-322z" />
</font>
</defs>
</svg>
