<svg width="18" height="18" viewBox="0 0 18 18" xmlns="http://www.w3.org/2000/svg"><title>Fill 166</title><path d="M14.625 9.563h1.125V8.437h-1.125v1.126zM9 16.875c-4.35 0-7.875-3.526-7.875-7.875C1.125 4.65 4.65 1.125 9 1.125c4.35 0 7.875 3.526 7.875 7.875 0 4.35-3.526 7.875-7.875 7.875zM9 0C4.03 0 0 4.03 0 9s4.03 9 9 9 9-4.03 9-9-4.03-9-9-9zm3.418 4.654l.778.78.78-.78-.78-.78-.778.78zm-.165 8.16l.795.794.796-.795-.796-.796-.795.796zM9 2.25c-.31 0-.563.25-.563.563V8.45h-4.5c-.31 0-.562.253-.562.563 0 .31.25.562.563.562H9c.31 0 .563-.25.563-.562v-6.2c0-.312-.252-.563-.563-.563zM5.452 4.682l-.796-.796-.795.796.796.795.796-.795zm-1.665 8.16l.78.78.777-.78-.778-.78-.78.78zm4.65 2.908h1.126v-1.125H8.437v1.125z" fill="#858585" fill-rule="evenodd"/></svg>