<svg width="14" height="18" viewBox="0 0 14 18" xmlns="http://www.w3.org/2000/svg"><title>Fill 162</title><path d="M6.75 8.437c-.932 0-1.688-.755-1.688-1.687s.756-1.688 1.688-1.688c.932 0 1.687.756 1.687 1.688 0 .932-.755 1.687-1.687 1.687zm0-4.5c-1.553 0-2.813 1.26-2.813 2.813 0 1.554 1.26 2.812 2.813 2.812 1.553 0 2.812-1.258 2.812-2.812 0-1.554-1.26-2.813-2.812-2.813zm0 12.375c-.935.006-5.625-7.21-5.625-9.562 0-3.106 2.518-5.625 5.625-5.625s5.625 2.52 5.625 5.625c0 2.32-4.704 9.568-5.625 9.562zM6.75 0C3.022 0 0 3.022 0 6.75 0 9.573 5.628 18.006 6.75 18c1.105.006 6.75-8.466 6.75-11.25C13.5 3.022 10.478 0 6.75 0z" fill="#858585" fill-rule="evenodd"/></svg>