<svg width="18" height="18" viewBox="0 0 18 18" xmlns="http://www.w3.org/2000/svg"><title>Fill 204</title><path d="M16.06 12.157L8.438 9.562V1.126c4.375-.022 8.375 3.76 8.375 8.196 0 1.16-.303 2.037-.753 2.837zm-7.904 4.718c-3.883 0-7.03-3.148-7.03-7.03 0-3.54 2.765-6.54 6.187-7.033v7.554l7.148 2.49c-.95 2.403-3.68 4.02-6.304 4.02zM8.436 0H7.314v1.688C3.218 2.13 0 5.64 0 9.844 0 14.348 3.652 18 8.156 18c3.322 0 6.176-1.99 7.447-4.84l1.272.34C17.49 12.49 18 11.057 18 9.32 18 4.174 13.503 0 8.437 0z" fill="#FF8F62" fill-rule="evenodd"/></svg>