<svg width="18" height="18" viewBox="0 0 18 18" xmlns="http://www.w3.org/2000/svg"><title>Fill 178 Copy</title><path d="M16.794 2.333L12.6 6.543l2.537 6.974c.125.4.047.895-.114 1.056-.46.46-.786.24-.96.05l-4.054-5.48-4.49 4.505.81 3c-.32-.32-2.18-2.813-2.226-2.86-.03-.028-2.478-1.853-2.742-2.12l2.876.777 4.573-4.49L3.373 3.93c-.155-.14-.36-.552.06-.973.16-.162.65-.21 1.05-.085l6.943 2.516 4.25-4.173c.297-.298.878-.267 1.14-.007.26.26.277.83-.02 1.125zm.762-1.88c-.7-.704-1.934-.54-2.64.167L11.33 4.2 4.673 1.713c-.638-.165-1.28-.378-2.07.415-.404.404-1.242 1.245 0 2.49l4.563 3.735-2.97 2.964-2.77-.693c-.41-.106-.687-.023-.898.21-.108.133-.88.704-.34 1.243l3.22 2.507 2.506 3.22c.39.392.75.148 1.246-.322.313-.314.246-.475.15-.933l-.624-2.752 2.95-2.96 3.73 4.565c1.24 1.244 2.08.403 2.483 0 .792-.793.58-1.436.414-2.075L13.798 6.66l3.574-3.585c.705-.706.885-1.92.184-2.623z" fill="#FF8F62" fill-rule="evenodd"/></svg>