<svg width="18" height="18" viewBox="0 0 18 18" xmlns="http://www.w3.org/2000/svg"><title>Fill 22</title><path d="M12.39 5.102c-.27-.158-.613-.062-.768.202l-3.597 6.233L6.012 9.68c-.213-.224-.57-.236-.795-.022-.227.208-.24.568-.026.793l2.572 2.375c.213.225.57.236.795.022.07-.06 4.04-6.98 4.04-6.98.154-.265.062-.613-.207-.765zM9 16.875c-4.35 0-7.875-3.527-7.875-7.875S4.65 1.125 9 1.125c4.35 0 7.875 3.527 7.875 7.875S13.35 16.875 9 16.875zM9 0C4.03 0 0 4.028 0 9s4.03 9 9 9 9-4.028 9-9-4.03-9-9-9z" fill="#858585" fill-rule="evenodd"/></svg>