<?xml version="1.0" encoding="UTF-8" standalone="no"?>
<svg width="18px" height="18px" viewBox="0 0 18 18" version="1.1" xmlns="http://www.w3.org/2000/svg" xmlns:xlink="http://www.w3.org/1999/xlink" xmlns:sketch="http://www.bohemiancoding.com/sketch/ns">
    <!-- Generator: Sketch 3.5.2 (25235) - http://www.bohemiancoding.com/sketch -->
    <title>Fill 166</title>
    <desc>Created with Sketch.</desc>
    <defs></defs>
    <g id="Page-1" stroke="none" stroke-width="1" fill="none" fill-rule="evenodd" sketch:type="MSPage">
        <g id="Sky-Lucy" sketch:type="MSArtboardGroup" transform="translate(-21.000000, -187.000000)" fill="#858585">
            <path d="M35.625,196.5625 L36.75,196.5625 L36.75,195.4375 L35.625,195.4375 L35.625,196.5625 Z M30,203.875 C25.65075,203.875 22.125,200.34925 22.125,196 C22.125,191.651313 25.65075,188.125 30,188.125 C34.34925,188.125 37.875,191.651313 37.875,196 C37.875,200.34925 34.34925,203.875 30,203.875 L30,203.875 Z M30,187 C25.0291875,187 21,191.02975 21,196 C21,200.970812 25.0291875,205 30,205 C34.9708125,205 39,200.970812 39,196 C39,191.02975 34.9708125,187 30,187 L30,187 Z M33.41775,191.653563 L34.19625,192.43375 L34.97475,191.653563 L34.19625,190.873937 L33.41775,191.653563 L33.41775,191.653563 Z M33.2529375,199.812625 L34.0483125,200.608 L34.8436875,199.812625 L34.0483125,199.01725 L33.2529375,199.812625 L33.2529375,199.812625 Z M30,189.25 C29.6895,189.25 29.4375,189.501438 29.4375,189.8125 L29.4375,195.450438 L24.9375,195.450438 C24.6264375,195.450438 24.375,195.703 24.375,196.0135 C24.375,196.324 24.6264375,196.575438 24.9375,196.575438 L30,196.575438 C30.3110625,196.575438 30.5625,196.324 30.5625,196.0135 L30.5625,189.8125 C30.5625,189.501438 30.3110625,189.25 30,189.25 L30,189.25 Z M26.45175,191.681687 L25.656375,190.886313 L24.861,191.681687 L25.656375,192.477062 L26.45175,191.681687 L26.45175,191.681687 Z M24.7873125,199.843 L25.5658125,200.623187 L26.3443125,199.843 L25.5658125,199.062812 L24.7873125,199.843 L24.7873125,199.843 Z M29.4375,202.75 L30.5625,202.75 L30.5625,201.625 L29.4375,201.625 L29.4375,202.75 Z" id="Fill-166" sketch:type="MSShapeGroup"></path>
        </g>
    </g>
</svg>