<?xml version="1.0" encoding="UTF-8" standalone="no"?>
<svg width="18px" height="18px" viewBox="0 0 18 18" version="1.1" xmlns="http://www.w3.org/2000/svg" xmlns:xlink="http://www.w3.org/1999/xlink" xmlns:sketch="http://www.bohemiancoding.com/sketch/ns">
    <!-- Generator: Sketch 3.5.2 (25235) - http://www.bohemiancoding.com/sketch -->
    <title>Group 4</title>
    <desc>Created with Sketch.</desc>
    <defs></defs>
    <g id="Page-1" stroke="none" stroke-width="1" fill="none" fill-rule="evenodd" sketch:type="MSPage">
        <g id="Sky-Lucy_flights" sketch:type="MSArtboardGroup" transform="translate(-21.000000, -415.000000)" fill="#FF8F62">
            <g id="Group-3" sketch:type="MSLayerGroup" transform="translate(0.000000, 301.000000)">
                <g id="Group-4" transform="translate(21.000000, 114.000000)" sketch:type="MSShapeGroup">
                    <path d="M9.87366763,4 L8.10555874,4 L8.21111748,10.201576 L9.75491405,10.201576 L9.87366763,4 Z M8,12.2203869 C8,12.7877651 8.42223496,13.21 8.98961318,13.21 C9.55699141,13.21 9.97922637,12.7877651 9.97922637,12.2203869 C9.97922637,11.6530086 9.55699141,11.2307737 8.98961318,11.2307737 C8.40904012,11.2307737 8,11.6530086 8,12.2203869 L8,12.2203869 Z" id="!"></path>
                    <path d="M9,16.875 C4.65075,16.875 1.125,13.348125 1.125,9 C1.125,4.651875 4.65075,1.125 9,1.125 C13.34925,1.125 16.875,4.651875 16.875,9 C16.875,13.348125 13.34925,16.875 9,16.875 L9,16.875 Z M9,0 C4.02975,0 0,4.0275 0,9 C0,13.9725 4.02975,18 9,18 C13.97025,18 18,13.9725 18,9 C18,4.0275 13.97025,0 9,0 L9,0 Z" id="Fill-22-Copy"></path>
                </g>
            </g>
        </g>
    </g>
</svg>