<?xml version="1.0" encoding="UTF-8" standalone="no"?>
<svg width="14px" height="18px" viewBox="0 0 14 18" version="1.1" xmlns="http://www.w3.org/2000/svg" xmlns:xlink="http://www.w3.org/1999/xlink" xmlns:sketch="http://www.bohemiancoding.com/sketch/ns">
    <!-- Generator: Sketch 3.5.2 (25235) - http://www.bohemiancoding.com/sketch -->
    <title>Fill 162</title>
    <desc>Created with Sketch.</desc>
    <defs></defs>
    <g id="Page-1" stroke="none" stroke-width="1" fill="none" fill-rule="evenodd" sketch:type="MSPage">
        <g id="Sky-Lucy_signup_import-flights" sketch:type="MSArtboardGroup" transform="translate(-219.000000, -629.000000)" fill="#FF8F62">
            <g id="Bottom-Bar/Tab-Bar" sketch:type="MSLayerGroup" transform="translate(0.000000, 618.000000)">
                <g id="Placeholders" transform="translate(63.000000, 7.000000)" sketch:type="MSShapeGroup">
                    <path d="M162.749999,12.4374984 C161.817936,12.4374984 161.062499,11.682061 161.062499,10.7499987 C161.062499,9.8179364 161.817936,9.06249904 162.749999,9.06249904 C163.682061,9.06249904 164.437498,9.8179364 164.437498,10.7499987 C164.437498,11.682061 163.682061,12.4374984 162.749999,12.4374984 L162.749999,12.4374984 Z M162.749999,7.93749926 C161.196937,7.93749926 159.937499,9.19637402 159.937499,10.7499987 C159.937499,12.3036234 161.196937,13.5624982 162.749999,13.5624982 C164.303061,13.5624982 165.562498,12.3036234 165.562498,10.7499987 C165.562498,9.19637402 164.303061,7.93749926 162.749999,7.93749926 L162.749999,7.93749926 Z M162.749999,20.3124969 C161.814561,20.3175594 157.125,13.1018108 157.125,10.7499987 C157.125,7.64387431 159.643312,5.12499979 162.749999,5.12499979 C165.856686,5.12499979 168.374998,7.64387431 168.374998,10.7499987 C168.374998,13.0703108 163.670811,20.3175594 162.749999,20.3124969 L162.749999,20.3124969 Z M162.749999,4 C159.022312,4 156,7.02231193 156,10.7499987 C156,13.5726232 161.627811,22.0061841 162.749999,21.9999966 C163.854749,22.0061841 169.499997,13.5343732 169.499997,10.7499987 C169.499997,7.02231193 166.477686,4 162.749999,4 L162.749999,4 Z" id="Fill-162"></path>
                </g>
            </g>
        </g>
    </g>
</svg>