<?xml version="1.0" encoding="UTF-8" standalone="no"?>
<svg width="18px" height="18px" viewBox="0 0 18 18" version="1.1" xmlns="http://www.w3.org/2000/svg" xmlns:xlink="http://www.w3.org/1999/xlink" xmlns:sketch="http://www.bohemiancoding.com/sketch/ns">
    <!-- Generator: Sketch 3.5.2 (25235) - http://www.bohemiancoding.com/sketch -->
    <title>Fill 176</title>
    <desc>Created with Sketch.</desc>
    <defs></defs>
    <g id="Page-1" stroke="none" stroke-width="1" fill="none" fill-rule="evenodd" sketch:type="MSPage">
        <g id="Sky-Lucy" sketch:type="MSArtboardGroup" transform="translate(-22.000000, -301.000000)" fill="#858585">
            <path d="M39.4375,311.125 L36.0625,311.125 C35.7514375,311.125 35.5,311.377 35.5,311.6875 C35.5,311.998562 35.7514375,312.25 36.0625,312.25 L39.4375,312.25 C39.7485625,312.25 40,311.998562 40,311.6875 C40,311.377 39.7485625,311.125 39.4375,311.125 L39.4375,311.125 Z M39.4375,307.75 L34.9375,307.75 C34.6264375,307.75 34.375,308.001438 34.375,308.3125 C34.375,308.623562 34.6264375,308.875 34.9375,308.875 L39.4375,308.875 C39.7485625,308.875 40,308.623562 40,308.3125 C40,308.001438 39.7485625,307.75 39.4375,307.75 L39.4375,307.75 Z M39.4375,314.5 L36.0625,314.5 C35.7514375,314.5 35.5,314.752 35.5,315.0625 C35.5,315.373562 35.7514375,315.625 36.0625,315.625 L39.4375,315.625 C39.7485625,315.625 40,315.373562 40,315.0625 C40,314.752 39.7485625,314.5 39.4375,314.5 L39.4375,314.5 Z M34.9375,305.5 L39.4375,305.5 C39.7485625,305.5 40,305.248562 40,304.9375 C40,304.627 39.7485625,304.375 39.4375,304.375 L34.9375,304.375 C34.6264375,304.375 34.375,304.627 34.375,304.9375 C34.375,305.248562 34.6264375,305.5 34.9375,305.5 L34.9375,305.5 Z M33.25,315.34375 C33.25,316.741562 32.013625,317.875 30.4886875,317.875 L25.8863125,317.875 C24.361375,317.875 23.125,316.741562 23.125,315.34375 L23.125,313.65625 C23.125,312.460375 24.0323125,311.46475 25.2484375,311.199812 C26.078125,311.8585 27.090625,312.25 28.1875,312.25 C29.284375,312.25 30.296875,311.8585 31.1265625,311.199812 C32.3426875,311.46475 33.25,312.460375 33.25,313.65625 L33.25,315.34375 L33.25,315.34375 Z M24.25,306.625 C24.25,304.139875 26.012875,302.125 28.1875,302.125 C30.362125,302.125 32.125,304.139875 32.125,306.625 C32.125,309.110125 30.362125,311.125 28.1875,311.125 C26.012875,311.125 24.25,309.110125 24.25,306.625 L24.25,306.625 Z M32.0974375,310.198562 C32.816875,309.226562 33.25,307.98175 33.25,306.625 C33.25,303.518875 30.9836875,301 28.1875,301 C25.3913125,301 23.125,303.518875 23.125,306.625 C23.125,307.98175 23.558125,309.226562 24.2775625,310.198562 C22.9556875,310.655312 22,311.897312 22,313.375 L22,315.625 C22,317.488563 23.5114375,319 25.375,319 L31,319 C32.8635625,319 34.375,317.488563 34.375,315.625 L34.375,313.375 C34.375,311.897312 33.4193125,310.655312 32.0974375,310.198562 L32.0974375,310.198562 Z" id="Fill-176" sketch:type="MSShapeGroup"></path>
        </g>
    </g>
</svg>