<?xml version="1.0" encoding="UTF-8" standalone="no"?>
<svg width="18px" height="18px" viewBox="0 0 18 18" version="1.1" xmlns="http://www.w3.org/2000/svg" xmlns:xlink="http://www.w3.org/1999/xlink" xmlns:sketch="http://www.bohemiancoding.com/sketch/ns">
    <!-- Generator: Sketch 3.5.2 (25235) - http://www.bohemiancoding.com/sketch -->
    <title>Fill 204</title>
    <desc>Created with Sketch.</desc>
    <defs></defs>
    <g id="Page-1" stroke="none" stroke-width="1" fill="none" fill-rule="evenodd" sketch:type="MSPage">
        <g id="Sky-Lucy" sketch:type="MSArtboardGroup" transform="translate(-142.000000, -769.000000)" fill="#858585">
            <g id="Bottom-Bar/Tab-Bar" sketch:type="MSLayerGroup" transform="translate(0.000000, 759.000000)">
                <g id="Placeholders" transform="translate(63.000000, 7.000000)" sketch:type="MSShapeGroup">
                    <path d="M95.0599375,15.1573125 L87.4375,12.5625 L87.4375,4.125 C91.8131875,4.1030625 95.8125625,7.883625 95.8125625,12.3211875 C95.8125625,13.4788125 95.5099375,14.356875 95.0599375,15.1573125 L95.0599375,15.1573125 Z M87.15625,19.875 C83.2733125,19.875 80.125,16.72725 80.125,12.84375 C80.125,9.305625 82.8908125,6.306375 86.3125,5.8125 L86.3125,13.3663125 L93.4613125,15.8559375 C92.510125,18.2595 89.7791875,19.875 87.15625,19.875 L87.15625,19.875 Z M87.4375,3 L86.3125,3 L86.3125,4.6875 C82.2180625,5.1313125 79,8.639625 79,12.84375 C79,17.34825 82.65175,21 87.15625,21 C90.478375,21 93.3319375,19.0104375 94.602625,16.1608125 L95.875,16.5 C96.4898125,15.4903125 97,14.0570625 97,12.3211875 C97,7.1731875 92.5028125,3 87.4375,3 L87.4375,3 Z" id="Fill-204"></path>
                </g>
            </g>
        </g>
    </g>
</svg>