<?xml version="1.0" encoding="UTF-8" standalone="no"?>
<svg width="18px" height="18px" viewBox="0 0 18 18" version="1.1" xmlns="http://www.w3.org/2000/svg" xmlns:xlink="http://www.w3.org/1999/xlink" xmlns:sketch="http://www.bohemiancoding.com/sketch/ns">
    <!-- Generator: Sketch 3.5.2 (25235) - http://www.bohemiancoding.com/sketch -->
    <title>Fill 178 Copy</title>
    <desc>Created with Sketch.</desc>
    <defs></defs>
    <g id="Page-1" stroke="none" stroke-width="1" fill="none" fill-rule="evenodd" sketch:type="MSPage">
        <g id="Sky-Lucy" sketch:type="MSArtboardGroup" transform="translate(-66.000000, -770.000000)" fill="#858585">
            <g id="Bottom-Bar/Tab-Bar" sketch:type="MSLayerGroup" transform="translate(0.000000, 759.000000)">
                <g id="Placeholders" transform="translate(63.000000, 7.000000)" sketch:type="MSShapeGroup">
                    <path d="M19.7944297,6.33321823 L15.601391,10.5418803 L18.1367952,17.5169259 C18.2617086,17.9164646 18.1840597,18.4116676 18.0225726,18.5731712 C17.5639942,19.0323594 17.2370812,18.8140199 17.0632153,18.6215661 L13.0091569,13.1439465 L8.52127762,17.6480422 L9.32927593,20.6473962 C9.01024039,20.3277652 7.14891835,17.8348687 7.10446719,17.7892875 C7.07464553,17.7600255 4.62589296,15.9345275 4.36199936,15.6689187 L7.23782067,16.4454869 L11.8106635,11.9543341 L6.37242972,7.92968491 C6.21656932,7.79012773 6.0111937,7.37820894 6.4309477,6.95672373 C6.5929975,6.79522005 7.08252295,6.74626249 7.48089538,6.87175141 L14.4248419,9.38828259 L18.6747105,5.21450983 C18.9718018,4.91738808 19.553043,4.94777553 19.8135605,5.20831979 C20.0735154,5.46886405 20.091521,6.03665921 19.7944297,6.33321823 L19.7944297,6.33321823 Z M20.5557261,4.45200988 C19.8546357,3.74859665 18.622382,3.91347671 17.9173528,4.62026633 L14.3291875,8.20035832 L7.67389219,5.71308913 C7.03638377,5.54820907 6.39437396,5.33493417 5.6038185,6.12782157 C5.20038201,6.53186213 4.36199936,7.37258163 5.6038185,8.61677896 L10.1670959,12.3533101 L7.1978709,15.3166493 L4.42726942,14.623928 C4.01651818,14.5181346 3.7396831,14.600856 3.52868076,14.8338265 C3.42233557,14.9666309 2.65091099,15.5383652 3.18882631,16.0774611 L6.4101288,18.5838631 L8.91627401,21.8054957 C9.30564367,22.1960308 9.66744236,21.9523684 10.1620319,21.4824884 C10.4754407,21.1684847 10.4079199,21.006981 10.3133909,20.5494811 L9.68769859,17.7977285 L12.6366674,14.8383283 L16.3671889,19.4031989 C17.6084453,20.6473962 18.4473907,19.806114 18.8508272,19.4031989 C19.6419453,18.6097487 19.4292549,17.9671104 19.2643918,17.3284112 L16.7981963,10.6611792 L20.3717321,7.07489715 C21.0767613,6.36867026 21.2573793,5.15486038 20.5557261,4.45200988 L20.5557261,4.45200988 Z" id="Fill-178-Copy"></path>
                </g>
            </g>
        </g>
    </g>
</svg>