<?xml version="1.0" encoding="UTF-8" standalone="no"?>
<svg width="12px" height="12px" viewBox="0 0 12 12" version="1.1" xmlns="http://www.w3.org/2000/svg" xmlns:xlink="http://www.w3.org/1999/xlink" xmlns:sketch="http://www.bohemiancoding.com/sketch/ns">
    <!-- Generator: Sketch 3.5.2 (25235) - http://www.bohemiancoding.com/sketch -->
    <title>Fill 178</title>
    <desc>Created with Sketch.</desc>
    <defs></defs>
    <g id="Page-1" stroke="none" stroke-width="1" fill="none" fill-rule="evenodd" sketch:type="MSPage">
        <g id="Sky-Lucy" sketch:type="MSArtboardGroup" transform="translate(-97.000000, -216.000000)" fill="#BFBFBF">
            <path d="M108.196286,217.555479 L105.400927,220.361254 L107.091197,225.011284 C107.174472,225.277643 107.122706,225.607778 107.015048,225.715447 C106.709329,226.021573 106.491387,225.876013 106.375477,225.747711 L103.672771,222.095964 L100.680852,225.098695 L101.219517,227.098264 C101.006827,226.885177 99.7659456,225.223246 99.7363115,225.192858 C99.7164304,225.17335 98.0839286,223.956352 97.9079996,223.779279 L99.8252138,224.296991 L102.873776,221.302889 L99.2482865,218.61979 C99.1443795,218.526752 99.0074625,218.252139 99.2872985,217.971149 C99.3953317,217.86348 99.721682,217.830842 99.9872636,217.914501 L104.616561,219.592188 L107.449807,216.809673 C107.647868,216.611592 108.035362,216.63185 108.20904,216.805547 C108.382344,216.979243 108.394347,217.357773 108.196286,217.555479 L108.196286,217.555479 Z M108.703817,216.30134 C108.236424,215.832398 107.414921,215.942318 106.944902,216.413511 L104.552792,218.800239 L100.115928,217.142059 C99.6909225,217.032139 99.262916,216.889956 98.735879,217.418548 C98.4669213,217.687908 97.9079996,218.248388 98.735879,219.077853 L101.778064,221.568873 L99.7985806,223.544433 L97.9515129,223.082619 C97.6776788,223.01209 97.4931221,223.067237 97.3524538,223.222551 C97.281557,223.311087 96.767274,223.692243 97.1258842,224.051641 L99.2734192,225.722575 L100.944183,227.87033 C101.203762,228.130687 101.444962,227.968246 101.774688,227.654992 C101.983627,227.445656 101.938613,227.337987 101.875594,227.032987 L101.458466,225.198486 L103.424445,223.225552 L105.911459,226.268799 C106.738964,227.098264 107.29826,226.537409 107.567218,226.268799 C108.09463,225.739832 107.952837,225.311407 107.842928,224.885607 L106.198798,220.440786 L108.581155,218.049931 C109.051174,217.579114 109.171586,216.769907 108.703817,216.30134 L108.703817,216.30134 Z" id="Fill-178" sketch:type="MSShapeGroup"></path>
        </g>
    </g>
</svg>