<?xml version="1.0" encoding="UTF-8" standalone="no"?>
<svg width="18px" height="18px" viewBox="0 0 18 18" version="1.1" xmlns="http://www.w3.org/2000/svg" xmlns:xlink="http://www.w3.org/1999/xlink" xmlns:sketch="http://www.bohemiancoding.com/sketch/ns">
    <!-- Generator: Sketch 3.5.2 (25235) - http://www.bohemiancoding.com/sketch -->
    <title>Fill 22</title>
    <desc>Created with Sketch.</desc>
    <defs></defs>
    <g id="Page-1" stroke="none" stroke-width="1" fill="none" fill-rule="evenodd" sketch:type="MSPage">
        <g id="Sky-Lucy_flights" sketch:type="MSArtboardGroup" transform="translate(-21.000000, -241.000000)" fill="#858585">
            <path d="M33.3901875,246.101875 C33.12075,245.944375 32.7770625,246.04 32.6218125,246.304375 L29.024625,252.536875 L27.012,250.680625 C26.799375,250.455625 26.4433125,250.444375 26.216625,250.658125 C25.9899375,250.86625 25.978125,251.22625 26.19075,251.45125 L28.7625,253.825 C28.9745625,254.05 29.330625,254.06125 29.5573125,253.8475 C29.6259375,253.785625 33.5960625,246.866875 33.5960625,246.866875 C33.7513125,246.6025 33.6590625,246.25375 33.3901875,246.101875 L33.3901875,246.101875 Z M30,257.875 C25.65075,257.875 22.125,254.348125 22.125,250 C22.125,245.651875 25.65075,242.125 30,242.125 C34.34925,242.125 37.875,245.651875 37.875,250 C37.875,254.348125 34.34925,257.875 30,257.875 L30,257.875 Z M30,241 C25.02975,241 21,245.0275 21,250 C21,254.9725 25.02975,259 30,259 C34.97025,259 39,254.9725 39,250 C39,245.0275 34.97025,241 30,241 L30,241 Z" id="Fill-22" sketch:type="MSShapeGroup"></path>
        </g>
    </g>
</svg>